<svg width="85" height="85" viewBox="0 0 85 85" fill="none" xmlns="http://www.w3.org/2000/svg">
<path d="M10.2249 73.7297C10.2249 52.6754 10.2249 31.6212 10.2249 10.5669C31.2792 10.5669 52.3334 10.5669 73.3877 10.5669C73.3877 31.6212 73.3877 52.6754 73.3877 73.7297C52.3334 73.7297 31.2792 73.7297 10.2249 73.7297ZM47.0205 70.6786C47.029 70.6529 47.0375 70.6274 47.046 70.6017C46.9814 70.5331 46.9185 70.4627 46.8519 70.396C45.5437 69.087 44.2303 67.7835 42.9318 66.4648C42.7341 66.264 42.5381 66.1941 42.2651 66.1945C34.2487 66.2048 26.2322 66.2084 18.2159 66.2118C17.6853 66.212 17.7525 66.2632 17.7523 65.7496C17.7509 58.5225 17.7514 51.2955 17.7513 44.0685C17.7513 43.7232 17.7502 43.7227 17.4068 43.7229C16.1526 43.7234 14.8985 43.7242 13.6442 43.7251C13.5412 43.7251 13.438 43.7251 13.3132 43.7251C13.3056 43.8475 13.2944 43.9416 13.2944 44.0358C13.2935 52.8065 13.2947 61.5773 13.2883 70.3479C13.2881 70.6072 13.3682 70.667 13.6162 70.667C24.6585 70.6668 35.7009 70.6731 46.7431 70.6786C46.8354 70.6786 46.9279 70.6786 47.0205 70.6786ZM70.317 40.6744C70.317 40.5051 70.317 40.3671 70.317 40.229C70.317 31.7125 70.317 23.1962 70.317 14.6797C70.317 14.4165 70.3068 14.1529 70.32 13.8906C70.3299 13.6973 70.2665 13.6315 70.0676 13.6337C69.2519 13.6425 68.4363 13.6354 67.6206 13.6351C57.3764 13.6298 47.132 13.6247 36.8878 13.6206C36.7823 13.6206 36.6769 13.6347 36.5145 13.6463C36.627 13.7661 36.6898 13.8368 36.7566 13.9037C38.0709 15.2189 39.3885 16.531 40.6963 17.8526C40.8655 18.0234 41.0357 18.0874 41.2726 18.0868C45.456 18.0758 49.6395 18.0712 53.8229 18.0681C57.7346 18.0653 61.6465 18.0654 65.5582 18.0653C65.6512 18.0653 65.744 18.0758 65.8557 18.0826C65.8557 18.2325 65.8557 18.3544 65.8557 18.4763C65.8557 25.7649 65.857 33.0533 65.8504 40.3419C65.8502 40.6 65.906 40.6877 66.1819 40.6841C67.4535 40.6678 68.7253 40.6754 69.997 40.6746C70.091 40.6744 70.1849 40.6744 70.317 40.6744ZM68.0612 70.6449C68.0793 70.6124 68.0975 70.58 68.1155 70.5475C68.0238 70.4802 67.9215 70.4236 67.8419 70.344C63.7735 66.2751 59.7081 62.203 55.6363 58.1375C55.4537 57.9553 55.3774 57.7756 55.3777 57.5184C55.3845 53.0275 55.3828 48.5364 55.3825 44.0455C55.3825 43.6635 55.3815 43.6628 55.0165 43.6628C48.6836 43.6623 42.3508 43.6622 36.0178 43.6618C35.9144 43.6618 35.8112 43.6618 35.6866 43.6618C35.6771 43.8133 35.6631 43.9337 35.663 44.0542C35.6614 45.3348 35.6618 46.6154 35.6621 47.896C35.6623 48.3018 35.663 48.3023 36.0592 48.3025C40.8046 48.3032 45.5498 48.3033 50.2952 48.3045C50.8096 48.3047 50.7381 48.2724 50.7382 48.7341C50.7399 52.2164 50.7401 55.6987 50.7369 59.1808C50.7367 59.3642 50.7693 59.5097 50.9096 59.6495C54.5247 63.254 58.1355 66.8626 61.7439 70.4737C61.8766 70.6065 62.0092 70.6731 62.2029 70.6723C64.0712 70.6634 65.9395 70.6639 67.8078 70.6607C67.8923 70.6605 67.9768 70.6504 68.0612 70.6449ZM15.551 13.6471C15.5372 13.6759 15.5236 13.7046 15.5098 13.7333C15.6026 13.812 15.7017 13.8844 15.7874 13.9701C19.8503 18.0333 23.9105 22.0988 27.978 26.1573C28.1631 26.3419 28.2287 26.5241 28.2284 26.7784C28.2219 31.2787 28.2241 35.7789 28.2222 40.2792C28.2221 40.4847 28.2064 40.6391 28.5123 40.6387C34.8898 40.6311 41.2674 40.6338 47.6449 40.6411C47.88 40.6414 47.9405 40.5676 47.9389 40.3402C47.9292 39.0069 47.9343 37.6734 47.9341 36.3401C47.9341 35.9974 47.9334 35.9957 47.5844 35.9948C45.8827 35.9904 44.1808 35.9843 42.4791 35.9838C39.3912 35.9829 36.3034 35.9856 33.2155 35.9865C32.8723 35.9867 32.8721 35.9856 32.8717 35.6421C32.8678 32.1508 32.8622 28.6593 32.8638 25.168C32.8639 24.9421 32.8043 24.7763 32.6404 24.613C29.0369 21.0209 25.4382 17.4244 21.8428 13.8239C21.6997 13.6804 21.5547 13.6259 21.3571 13.6266C19.515 13.633 17.6727 13.6318 15.8306 13.6337C15.7374 13.6337 15.6441 13.6424 15.551 13.6471ZM20.7909 33.8076C20.7909 33.9853 20.7909 34.0857 20.7909 34.1862C20.7909 36.4055 20.7909 38.6249 20.7909 40.8442C20.7909 48.1777 20.7914 55.5113 20.7883 62.8448C20.7881 63.0525 20.7938 63.1754 21.0726 63.1751C27.4499 63.1683 33.8273 63.1714 40.2045 63.1787C40.4298 63.179 40.5102 63.1233 40.5085 62.8866C40.4985 61.5797 40.4985 60.2725 40.5087 58.9657C40.5105 58.7243 40.4182 58.6659 40.1987 58.6728C39.5679 58.6929 38.9365 58.7043 38.3053 58.708C34.0425 58.7323 29.7798 58.7537 25.5172 58.7752C25.4159 58.7757 25.3146 58.7656 25.1775 58.7588C25.1775 51.1673 25.1775 43.6033 25.1775 36.0236C25.0371 36.0161 24.9334 36.006 24.8297 36.0059C24.3034 36.0047 23.7766 36.0174 23.2509 35.9986C23.1112 35.9936 22.942 35.9285 22.8426 35.8326C22.2362 35.2485 21.6461 34.6474 21.0501 34.0524C20.9847 33.9871 20.9162 33.9258 20.7909 33.8076ZM62.7137 50.4673C62.7484 50.4455 62.7831 50.4239 62.8176 50.4022C62.8176 50.2719 62.8176 50.1419 62.8176 50.0117C62.8176 42.3547 62.8176 34.6979 62.8176 27.0409C62.8176 25.1641 62.8162 23.2871 62.8198 21.4103C62.8201 21.2307 62.8072 21.1242 62.5725 21.1244C56.1697 21.1297 49.767 21.1281 43.3645 21.123C43.1775 21.1229 43.1005 21.1647 43.1017 21.3695C43.1095 22.7027 43.1086 24.0358 43.1022 25.369C43.1013 25.5572 43.1726 25.6167 43.3482 25.61C43.6809 25.5978 44.0141 25.5917 44.3471 25.5893C47.0567 25.5709 49.7664 25.5515 52.4762 25.5376C54.3266 25.5281 56.1772 25.5262 58.0278 25.5232C58.4377 25.5225 58.4161 25.4682 58.4163 25.898C58.418 29.9149 58.4199 33.932 58.4207 37.949C58.4214 41.2993 58.4231 44.6499 58.416 48.0002C58.4154 48.2304 58.4795 48.3074 58.7106 48.302C59.2716 48.2884 59.8334 48.2877 60.3942 48.3032C60.5185 48.3066 60.6688 48.3683 60.7584 48.4541C61.2648 48.9395 61.7595 49.4376 62.2515 49.9377C62.4155 50.1045 62.5602 50.2903 62.7137 50.4673ZM57.5371 70.6731C57.5683 70.6291 57.5998 70.5852 57.6311 70.5412C57.5394 70.4882 57.4311 70.452 57.3589 70.3799C54.2134 67.2379 51.0721 64.0916 47.9247 60.9515C47.7678 60.7949 47.7087 60.6394 47.7092 60.4216C47.7153 57.5015 47.7104 54.5814 47.7182 51.6613C47.7189 51.4114 47.6529 51.3319 47.3955 51.3348C46.2293 51.348 45.063 51.3404 43.8968 51.3404C43.5292 51.3404 43.5285 51.3407 43.5285 51.7132C43.5284 55.2647 43.5321 58.8161 43.5217 62.3676C43.5209 62.6653 43.61 62.8713 43.8179 63.0784C46.2839 65.5357 48.7428 68 51.1988 70.4674C51.3465 70.6158 51.4946 70.6811 51.7047 70.6803C53.5636 70.6723 55.4228 70.6741 57.2819 70.673C57.3667 70.6731 57.4519 70.6731 57.5371 70.6731ZM35.8886 32.9556C36.0314 32.9556 36.1267 32.9556 36.2219 32.9556C37.3973 32.9557 38.5727 32.9481 39.7477 32.9619C40.0082 32.9649 40.0908 32.9035 40.0899 32.6298C40.0806 29.0162 40.0825 25.4026 40.0874 21.7889C40.0877 21.5979 40.0313 21.4613 39.8967 21.3269C37.3825 18.8173 34.8737 16.3027 32.357 13.796C32.2637 13.7032 32.1022 13.631 31.9719 13.6303C30.0686 13.6209 28.1653 13.6254 26.2621 13.6279C26.1926 13.6281 26.1233 13.6436 26.0078 13.6573C26.1141 13.769 26.1782 13.8391 26.2451 13.9062C29.3697 17.0334 32.4928 20.1617 35.623 23.2832C35.8112 23.4709 35.8954 23.6543 35.8945 23.9238C35.8852 26.8094 35.8887 29.6951 35.8887 32.5807C35.8886 32.6926 35.8886 32.8046 35.8886 32.9556ZM50.9603 32.9559C50.9603 33.1215 50.9603 33.2432 50.9603 33.3649C50.9603 35.6803 50.9637 37.9959 50.9555 40.3113C50.9546 40.5597 51.0208 40.6435 51.2792 40.6409C52.5421 40.6282 53.8052 40.6266 55.068 40.6402C55.3357 40.6431 55.3869 40.5447 55.3866 40.305C55.3809 36.5074 55.3828 32.7096 55.3823 28.9119C55.3823 28.5646 55.3799 28.5607 55.0309 28.5633C53.6373 28.573 52.2438 28.5866 50.8501 28.5964C48.3686 28.6141 45.887 28.6342 43.4055 28.6415C43.1544 28.6421 43.0991 28.7248 43.101 28.9572C43.1105 30.1849 43.1125 31.413 43.0996 32.6407C43.0969 32.8967 43.1736 32.9622 43.424 32.9613C45.8184 32.9523 48.2127 32.9559 50.6072 32.9559C50.7104 32.9559 50.8137 32.9559 50.9603 32.9559ZM34.3411 55.6992C34.3411 55.6825 34.3411 55.6657 34.3411 55.649C36.2872 55.649 38.2332 55.6456 40.1792 55.6533C40.4254 55.6543 40.5117 55.586 40.5092 55.3281C40.4968 54.1093 40.4961 52.8904 40.5095 51.6717C40.5124 51.406 40.4383 51.3334 40.1709 51.3346C37.7859 51.3455 35.4008 51.3414 33.0157 51.3417C32.6424 51.3417 32.6417 51.3416 32.6416 50.9764C32.6412 48.6704 32.6416 46.3641 32.6412 44.0581C32.6412 43.663 32.6405 43.663 32.2361 43.6632C31.0172 43.6639 29.7985 43.6644 28.5796 43.6652C28.2243 43.6656 28.2234 43.6661 28.2234 44.0289C28.2233 47.1417 28.2233 50.2544 28.2233 53.3673C28.2233 54.0687 28.2275 54.7703 28.2209 55.4717C28.219 55.6604 28.2726 55.7391 28.4771 55.7276C28.8705 55.7051 29.2652 55.7012 29.6594 55.7005C31.2202 55.6977 32.7806 55.6992 34.3411 55.6992ZM25.1849 32.9525C25.1849 32.8099 25.1849 32.7069 25.1849 32.6037C25.1849 31.0602 25.1809 29.5168 25.1893 27.9734C25.1905 27.7621 25.1233 27.6159 24.9761 27.4691C21.1644 23.6661 17.3567 19.8591 13.5478 16.053C13.4848 15.9899 13.418 15.9306 13.3163 15.835C13.3051 15.9656 13.2944 16.0334 13.2942 16.1012C13.2934 17.9954 13.2905 19.8897 13.3007 21.7838C13.3013 21.9056 13.3739 22.0548 13.4613 22.1436C14.3715 23.0687 15.2915 23.9843 16.2089 24.9023C18.8246 27.5201 21.4401 30.1382 24.0586 32.7534C24.1407 32.8354 24.2485 32.9324 24.3527 32.9435C24.612 32.9709 24.876 32.9525 25.1849 32.9525ZM58.4207 51.3431C58.4207 51.482 58.4207 51.5848 58.4207 51.6877C58.4207 53.2226 58.4256 54.7577 58.4154 56.2927C58.4139 56.5239 58.488 56.6828 58.6478 56.8421C62.4553 60.6387 66.2586 64.4394 70.0628 68.2392C70.1266 68.303 70.1927 68.3642 70.2933 68.4609C70.3047 68.3322 70.316 68.2646 70.316 68.1969C70.317 66.3023 70.3202 64.4076 70.309 62.5131C70.3083 62.3855 70.224 62.2301 70.1303 62.1354C68.8723 60.8629 67.6055 59.5992 66.3412 58.333C64.079 56.0676 61.8173 53.8015 59.5524 51.5388C59.4706 51.457 59.3612 51.363 59.2566 51.3521C58.997 51.3251 58.7328 51.3431 58.4207 51.3431ZM13.3151 40.6525C14.7756 40.6525 16.2143 40.6525 17.6591 40.6525C17.6591 39.0978 17.6591 37.5687 17.6591 36.0346C16.1985 36.0346 14.7589 36.0346 13.3151 36.0346C13.3151 37.5889 13.3151 39.1184 13.3151 40.6525ZM70.2949 43.7434C68.8388 43.7434 67.4049 43.7434 65.9558 43.7434C65.9558 45.2581 65.9558 46.7538 65.9558 48.2605C67.4098 48.2605 68.8495 48.2605 70.2949 48.2605C70.2949 46.7397 70.2949 45.2449 70.2949 43.7434ZM70.295 51.3637C68.8336 51.3637 67.3999 51.3637 65.9407 51.3637C65.9407 52.0464 65.9313 52.7111 65.9483 53.3753C65.9519 53.5143 66.0178 53.6857 66.1144 53.7835C67.428 55.111 68.752 56.4283 70.0737 57.7479C70.1344 57.8085 70.1992 57.8652 70.295 57.9544C70.295 55.7352 70.295 53.5587 70.295 51.3637ZM13.4049 26.374C13.3744 26.391 13.344 26.4078 13.3136 26.4248C13.3136 28.5922 13.3136 30.7595 13.3136 32.9304C14.7735 32.9304 16.2136 32.9304 17.68 32.9304C17.68 32.2618 17.6909 31.6139 17.6717 30.9671C17.6673 30.8204 17.5942 30.6412 17.4917 30.5373C16.1793 29.2094 14.8551 27.893 13.5363 26.5714C13.4812 26.5166 13.4481 26.4403 13.4049 26.374Z" fill="url(#paint0_linear)"/>
<defs>
<linearGradient id="paint0_linear" x1="62.361" y1="73.7297" x2="24.8915" y2="73.7297" gradientUnits="userSpaceOnUse">
<stop stop-color="#77216B"/>
<stop offset="1" stop-color="#2A2FA9"/>
</linearGradient>
</defs>
</svg>
