<svg width="150" height="150" viewBox="0 0 150 150" fill="none" xmlns="http://www.w3.org/2000/svg">
<path d="M92.2082 87.417L91.4972 91.686L86.6732 117.732H85.8962L89.4032 91.686L89.9222 87.417H92.2082Z" fill="#DBDBDB"/>
<path d="M89.9223 87.417H92.2083L91.4973 91.686H89.4033L89.9223 87.417Z" fill="#A6A6A6"/>
<path d="M107.352 117.732H106.575L101.754 91.686L101.04 87.417H103.329L103.845 91.686L107.352 117.732Z" fill="#DBDBDB"/>
<path d="M103.329 87.417L103.845 91.686H101.754L101.04 87.417H103.329Z" fill="#A6A6A6"/>
<path d="M121.818 117.732H121.041L116.22 91.686L115.506 87.417H117.795L118.311 91.686L121.818 117.732Z" fill="#DBDBDB"/>
<path d="M118.311 91.686H116.22L115.506 87.417H117.795L118.311 91.686Z" fill="#A6A6A6"/>
<path d="M120.585 89.4211H85.2451V85.6981H98.4751L102.921 59.8291H119.238L120.585 89.4211Z" fill="#DBDBDB"/>
<path d="M120.585 89.4211H118.659L117.405 59.8291H119.238L120.585 89.4211Z" fill="#A6A6A6"/>
<path d="M87.0393 64.569L90.1983 66.528L90.7983 65.562C90.8847 65.4229 91.0084 65.3106 91.1552 65.238C91.302 65.1654 91.4662 65.1353 91.6293 65.151C91.8123 65.166 91.9983 65.172 92.1843 65.169C92.3475 65.164 92.509 65.2045 92.6504 65.2862C92.7919 65.3678 92.9079 65.4872 92.9853 65.631L93.5253 66.633L96.8013 64.875L96.2643 63.873C96.1873 63.7286 96.1522 63.5657 96.1628 63.4024C96.1734 63.2392 96.2293 63.0822 96.3243 62.949C96.4328 62.7966 96.533 62.6383 96.6243 62.475C96.7034 62.3317 96.82 62.2127 96.9617 62.1308C97.1033 62.0488 97.2647 62.0071 97.4283 62.01L98.5653 62.046L98.6793 58.329L97.5393 58.296C97.3757 58.2878 97.2175 58.2352 97.0816 58.1437C96.9457 58.0523 96.8374 57.9255 96.7683 57.777C96.7293 57.696 96.6903 57.615 96.6453 57.534C96.6003 57.453 96.5583 57.372 96.5103 57.297C96.4248 57.158 96.3796 56.9981 96.3796 56.835C96.3796 56.6719 96.4248 56.5119 96.5103 56.373L97.1103 55.398L93.9513 53.439L93.3513 54.408C93.2647 54.5468 93.141 54.6586 92.9941 54.7307C92.8472 54.8028 92.6831 54.8324 92.5203 54.816C92.3373 54.801 92.1513 54.795 91.9683 54.798C91.8053 54.8015 91.6443 54.7606 91.5027 54.6798C91.3611 54.5989 91.2441 54.4812 91.1643 54.339L90.6003 53.334L87.3243 55.092L87.8613 56.094C87.9383 56.2383 87.9734 56.4013 87.9628 56.5645C87.9522 56.7278 87.8963 56.8848 87.8013 57.018C87.6963 57.171 87.6003 57.318 87.5013 57.489C87.4244 57.6337 87.3088 57.7541 87.1673 57.8368C87.0258 57.9195 86.8641 57.9611 86.7003 57.957L85.5603 57.921L85.4463 61.635L86.5863 61.671C86.7493 61.6782 86.9072 61.7306 87.0422 61.8222C87.1773 61.9139 87.2843 62.0412 87.3513 62.19C87.3903 62.271 87.4323 62.352 87.4773 62.436C87.5223 62.52 87.5643 62.595 87.6123 62.673C87.6983 62.8123 87.7439 62.9728 87.7439 63.1365C87.7439 63.3002 87.6983 63.4607 87.6123 63.6L87.0393 64.569ZM89.4003 61.422C89.1162 60.891 88.9959 60.2877 89.0547 59.6884C89.1134 59.089 89.3486 58.5206 89.7304 58.0549C90.1122 57.5892 90.6236 57.2471 91.1998 57.072C91.7759 56.8969 92.3911 56.8966 92.9675 57.0711C93.5439 57.2456 94.0556 57.5871 94.4379 58.0524C94.8202 58.5177 95.0559 59.0859 95.1153 59.6852C95.1747 60.2845 95.055 60.8879 94.7715 61.4192C94.4879 61.9505 94.0532 62.3858 93.5223 62.67C93.1699 62.8595 92.7835 62.9776 92.3853 63.0175C91.9872 63.0573 91.585 63.0182 91.2021 62.9022C90.8191 62.7863 90.4627 62.5958 90.1535 62.3418C89.8443 62.0878 89.5884 61.7752 89.4003 61.422Z" fill="#EBEBEB"/>
<path d="M115.116 54.6211L116.418 56.8771L117.108 56.4781C117.208 56.4214 117.321 56.3935 117.436 56.3978C117.55 56.402 117.661 56.4382 117.756 56.5021C117.867 56.5711 117.978 56.6371 118.095 56.6971C118.197 56.7481 118.283 56.8264 118.344 56.9233C118.404 57.0202 118.436 57.132 118.437 57.2461V58.0441H121.041V57.2461C121.04 57.1312 121.072 57.0183 121.133 56.921C121.194 56.8237 121.282 56.746 121.386 56.6971C121.5 56.6371 121.614 56.5711 121.722 56.5021C121.817 56.4382 121.928 56.402 122.043 56.3978C122.157 56.3935 122.271 56.4214 122.37 56.4781L123.063 56.8771L124.362 54.6211L123.669 54.2221C123.571 54.1634 123.492 54.0788 123.439 53.9778C123.386 53.8767 123.362 53.763 123.369 53.6491C123.369 53.5861 123.369 53.5201 123.369 53.4571C123.369 53.3941 123.369 53.3281 123.369 53.2651C123.361 53.1512 123.385 53.0372 123.438 52.936C123.491 52.8348 123.571 52.7503 123.669 52.6921L124.362 52.2901L123.063 50.0341L122.37 50.4331C122.271 50.4927 122.157 50.5224 122.042 50.5186C121.926 50.5149 121.814 50.4779 121.719 50.4121C121.611 50.3407 121.499 50.2756 121.383 50.2171C121.281 50.1661 121.195 50.0878 121.135 49.9909C121.074 49.894 121.042 49.7823 121.041 49.6681V48.8701H118.437V49.6681C118.436 49.7823 118.404 49.894 118.344 49.9909C118.283 50.0878 118.197 50.1661 118.095 50.2171C117.98 50.2763 117.868 50.3414 117.759 50.4121C117.665 50.4773 117.553 50.514 117.438 50.5177C117.323 50.5214 117.21 50.4921 117.111 50.4331L116.418 50.0341L115.116 52.2901L115.809 52.6921C115.907 52.7506 115.987 52.8351 116.04 52.9362C116.093 53.0374 116.117 53.1512 116.109 53.2651C116.109 53.3281 116.109 53.3911 116.109 53.4571C116.109 53.5231 116.109 53.5861 116.109 53.6491C116.117 53.763 116.093 53.8767 116.04 53.9778C115.987 54.0788 115.907 54.1634 115.809 54.2221L115.116 54.6211ZM117.606 53.4571C117.606 53.0353 117.731 52.6229 117.966 52.2721C118.2 51.9213 118.533 51.6479 118.923 51.4865C119.313 51.325 119.742 51.2828 120.155 51.3651C120.569 51.4474 120.949 51.6506 121.247 51.9489C121.546 52.2472 121.749 52.6272 121.831 53.041C121.914 53.4548 121.871 53.8836 121.71 54.2734C121.548 54.6631 121.275 54.9963 120.924 55.2306C120.573 55.465 120.161 55.5901 119.739 55.5901C119.459 55.5909 119.181 55.5363 118.921 55.4295C118.662 55.3226 118.426 55.1656 118.227 54.9675C118.028 54.7694 117.871 54.534 117.763 54.2748C117.656 54.0156 117.6 53.7377 117.6 53.4571H117.606Z" fill="#EBEBEB"/>
<path d="M18.1082 78.1563L19.4102 80.4003L20.1002 80.0043C20.1992 79.9448 20.3133 79.9151 20.4288 79.9188C20.5442 79.9225 20.6562 79.9595 20.7512 80.0253C20.8592 80.0943 20.9702 80.1603 21.0872 80.2203C21.1906 80.2696 21.2779 80.3475 21.3385 80.4448C21.3991 80.5421 21.4305 80.6547 21.4292 80.7693V81.5673H24.0362V80.7693C24.0348 80.6547 24.0662 80.5421 24.1268 80.4448C24.1875 80.3475 24.2747 80.2696 24.3782 80.2203C24.4952 80.1603 24.6062 80.0943 24.7142 80.0253C24.8091 79.9595 24.9211 79.9225 25.0366 79.9188C25.152 79.9151 25.2661 79.9448 25.3652 80.0043L26.0552 80.4003L27.3572 78.1473L26.6642 77.7453C26.5659 77.6871 26.4857 77.6027 26.4327 77.5015C26.3798 77.4003 26.356 77.2863 26.3642 77.1723C26.3642 77.1093 26.3642 77.0433 26.3642 76.9803C26.3642 76.9173 26.3642 76.8513 26.3642 76.7883C26.3564 76.6744 26.3803 76.5606 26.4332 76.4595C26.4862 76.3583 26.5661 76.2738 26.6642 76.2153L27.3602 75.8133L26.0582 73.5603L25.3652 73.9593C25.2656 74.0161 25.1522 74.0439 25.0377 74.0397C24.9232 74.0354 24.8122 73.9993 24.7172 73.9353C24.6086 73.8646 24.4964 73.7995 24.3812 73.7403C24.2785 73.6921 24.1916 73.6158 24.1305 73.5203C24.0695 73.4247 24.0367 73.3138 24.0362 73.2003V72.4023H21.4292V73.2003C21.4305 73.315 21.3991 73.4276 21.3385 73.5249C21.2779 73.6222 21.1906 73.7001 21.0872 73.7493C20.9719 73.8085 20.8597 73.8736 20.7512 73.9443C20.6561 74.0083 20.5451 74.0444 20.4306 74.0487C20.3161 74.0529 20.2027 74.0251 20.1032 73.9683L19.4102 73.5693L18.1082 75.8223L18.8012 76.2243C18.8994 76.2826 18.9796 76.367 19.0326 76.4682C19.0856 76.5694 19.1093 76.6834 19.1012 76.7973C19.1012 76.8603 19.1012 76.9233 19.1012 76.9893C19.1012 77.0553 19.1012 77.1183 19.1012 77.1813C19.1088 77.2956 19.0849 77.4099 19.032 77.5115C18.9791 77.6131 18.8992 77.6981 18.8012 77.7573L18.1082 78.1563ZM20.5982 76.9893C20.5976 76.5666 20.7224 76.1532 20.9569 75.8015C21.1914 75.4498 21.5249 75.1756 21.9154 75.0135C22.3058 74.8515 22.7355 74.8089 23.1501 74.8912C23.5648 74.9736 23.9456 75.1771 24.2445 75.476C24.5434 75.7749 24.7469 76.1557 24.8293 76.5704C24.9116 76.985 24.869 77.4147 24.707 77.8051C24.5449 78.1956 24.2707 78.5291 23.919 78.7636C23.5673 78.9981 23.1539 79.1229 22.7312 79.1223C22.1654 79.1223 21.6229 78.8976 21.2229 78.4976C20.8229 78.0976 20.5982 77.5551 20.5982 76.9893Z" fill="#EBEBEB"/>
<path d="M60.2073 75.0029L53.7003 117.711H52.4163L56.4333 75.0029H60.2073Z" fill="#EBEBEB"/>
<path d="M60.2041 75.0029L59.5831 79.0829H56.0491L56.4331 75.0029H60.2041Z" fill="#A6A6A6"/>
<path d="M119.793 75.0029L126.3 117.711H127.584L123.567 75.0029H119.793Z" fill="#EBEBEB"/>
<path d="M119.796 75.0029L120.417 79.0829H123.951L123.567 75.0029H119.796Z" fill="#A6A6A6"/>
<path d="M130.005 70.4883H49.9983V74.1153H130.005V70.4883Z" fill="#EBEBEB"/>
<path d="M128.787 74.1152H51.2102V75.0032H128.787V74.1152Z" fill="#C7C7C7"/>
<path d="M75.0001 134.28C108.634 134.28 135.9 131.181 135.9 127.359C135.9 123.537 108.634 120.438 75.0001 120.438C41.366 120.438 14.1001 123.537 14.1001 127.359C14.1001 131.181 41.366 134.28 75.0001 134.28Z" fill="#EBEBEB"/>
<path d="M8.91309 117.744L25.4341 117.672L41.9551 117.645L75.0001 117.594L108.045 117.645L124.566 117.669L141.087 117.744L124.566 117.816L108.045 117.843L75.0001 117.894L41.9551 117.843L25.4341 117.816L8.91309 117.744Z" fill="#263238"/>
<path d="M50.3279 44.8857C56.7647 44.8857 61.9829 39.6676 61.9829 33.2307C61.9829 26.7938 56.7647 21.5757 50.3279 21.5757C43.891 21.5757 38.6729 26.7938 38.6729 33.2307C38.6729 39.6676 43.891 44.8857 50.3279 44.8857Z" fill="#859ED3"/>
<path d="M50.3276 42.1259C55.2402 42.1259 59.2226 38.1435 59.2226 33.2309C59.2226 28.3184 55.2402 24.3359 50.3276 24.3359C45.415 24.3359 41.4326 28.3184 41.4326 33.2309C41.4326 38.1435 45.415 42.1259 50.3276 42.1259Z" fill="white"/>
<path d="M56.5165 34.7093C57.3307 31.2941 55.2222 27.8655 51.8071 27.0513C48.3919 26.2371 44.9633 28.3455 44.1491 31.7607C43.3349 35.1758 45.4433 38.6044 48.8585 39.4186C52.2736 40.2329 55.7022 38.1244 56.5165 34.7093Z" fill="#859ED3"/>
<path d="M53.7563 34.0183C54.1905 32.1257 53.0082 30.2394 51.1155 29.8052C49.2228 29.371 47.3365 30.5534 46.9024 32.4461C46.4682 34.3387 47.6505 36.225 49.5432 36.6592C51.4359 37.0934 53.3222 35.911 53.7563 34.0183Z" fill="white"/>
<path d="M51.918 33.2306C51.918 33.5451 51.8248 33.8525 51.6501 34.114C51.4754 34.3755 51.227 34.5793 50.9365 34.6996C50.646 34.8199 50.3263 34.8514 50.0178 34.7901C49.7094 34.7287 49.4261 34.5773 49.2037 34.3549C48.9814 34.1326 48.8299 33.8493 48.7686 33.5408C48.7072 33.2324 48.7387 32.9127 48.8591 32.6222C48.9794 32.3316 49.1832 32.0833 49.4447 31.9086C49.7062 31.7339 50.0136 31.6406 50.328 31.6406C50.5369 31.6402 50.7439 31.6811 50.937 31.7609C51.1301 31.8406 51.3055 31.9577 51.4532 32.1054C51.6009 32.2532 51.718 32.4286 51.7978 32.6217C51.8776 32.8148 51.9184 33.0217 51.918 33.2306Z" fill="#859ED3"/>
<path d="M66.2464 16.9523L51.1851 32.0137L51.5457 32.3743L66.6071 17.3129L66.2464 16.9523Z" fill="#455A64"/>
<path d="M52.2959 32.7028L50.3279 33.2308L50.8559 31.2598L52.2959 32.7028Z" fill="#263238"/>
<path d="M68.946 16.1518L66.123 18.9748L63.906 19.6498L64.584 17.4358L67.407 14.6128L66.732 16.8268L68.946 16.1518Z" fill="#263238"/>
<path d="M31.8362 86.0609C31.8362 85.8569 31.8152 85.6529 31.8152 85.4609H32.0402C32.0402 85.6559 32.0402 85.8539 32.0612 86.0609H31.8362Z" fill="#263238"/>
<path d="M55.0801 103.5H55.0411V103.275H55.0831C55.4611 103.275 55.8511 103.275 56.2381 103.245V103.47C55.8571 103.482 55.4641 103.5 55.0801 103.5ZM53.5321 103.449C53.1331 103.425 52.7281 103.389 52.3321 103.347L52.3561 103.122C52.7491 103.167 53.1511 103.2 53.5561 103.227L53.5321 103.449ZM57.7531 103.356L57.7291 103.131C58.1221 103.089 58.5211 103.035 58.9141 102.975L58.9471 103.197C58.5511 103.251 58.1491 103.302 57.7531 103.347V103.356ZM50.8531 103.134C50.4601 103.065 50.0641 102.987 49.6531 102.897L49.7041 102.678C50.0941 102.765 50.4871 102.843 50.8771 102.912L50.8531 103.134ZM60.4531 102.921L60.4051 102.702C60.7921 102.618 61.1851 102.522 61.5691 102.423L61.6261 102.639C61.2181 102.732 60.8221 102.828 60.4321 102.9L60.4531 102.921ZM48.2131 102.525C47.8291 102.414 47.4421 102.294 47.0611 102.165L47.1331 101.952C47.5111 102.081 47.8951 102.201 48.2761 102.309L48.2131 102.525ZM63.0721 102.225L63.0031 102.012C63.3751 101.889 63.7561 101.757 64.1341 101.616L64.2121 101.826C63.8101 101.949 63.4261 102.081 63.0511 102.204L63.0721 102.225ZM45.6481 101.649C45.2761 101.499 44.9041 101.349 44.5411 101.172L44.6341 100.965C44.9941 101.133 45.3661 101.292 45.7321 101.442L45.6481 101.649ZM65.6101 101.262L65.5201 101.055C65.8861 100.899 66.2491 100.728 66.6001 100.548L66.7021 100.749C66.3241 100.908 65.9581 101.082 65.5891 101.241L65.6101 101.262ZM43.1881 100.5C42.8311 100.308 42.4771 100.11 42.1381 99.8996L42.2521 99.7075C42.5911 99.9085 42.9421 100.107 43.2961 100.308L43.1881 100.5ZM68.0191 100.02L67.9021 99.8276C68.2411 99.6236 68.5801 99.4046 68.9101 99.1796L69.0361 99.3656C68.6821 99.5726 68.3401 99.7915 67.9981 99.9985L68.0191 100.02ZM40.8631 99.0985C40.5271 98.8735 40.1971 98.6396 39.8761 98.4026L40.0111 98.2225C40.3111 98.4566 40.6561 98.6905 40.9891 98.9125L40.8631 99.0985ZM70.2631 98.4715L70.1251 98.2976C70.4251 98.0516 70.7431 97.7936 71.0401 97.5296L71.1901 97.7006C70.8541 97.9436 70.5421 98.2046 70.2271 98.4506L70.2631 98.4715ZM38.7091 97.4666C38.4091 97.2056 38.1091 96.9386 37.8091 96.6686L37.9621 96.5035C38.2621 96.7705 38.5621 97.0375 38.8621 97.2925L38.7091 97.4666ZM72.2911 96.6715L72.1321 96.5125C72.4081 96.2365 72.6871 95.9485 72.9601 95.6516L73.1251 95.8015C72.8131 96.0805 72.5341 96.3746 72.2551 96.6506L72.2911 96.6715ZM36.6901 95.5855C36.4141 95.2855 36.1411 94.9855 35.8801 94.6855L36.0511 94.5386C36.3091 94.8386 36.5791 95.1385 36.8521 95.4386L36.6901 95.5855ZM74.0821 94.6465L73.9111 94.5026C74.1631 94.2026 74.4151 93.8875 74.6581 93.5695L74.8351 93.7075C74.5891 94.0255 74.3371 94.3435 74.0821 94.6465ZM34.9351 93.5125C34.6951 93.1885 34.4611 92.8556 34.2421 92.5226L34.4311 92.3996C34.6471 92.7266 34.8781 93.0566 35.1181 93.3776L34.9351 93.5125ZM75.7351 92.4985L75.5491 92.3666C75.7801 92.0426 76.0081 91.7155 76.2301 91.3825L76.4191 91.5055C76.2001 91.8415 75.9661 92.1715 75.7351 92.4985ZM33.4681 91.2265C33.2701 90.8666 33.0901 90.5006 32.9281 90.1436L33.1321 90.0506C33.2941 90.4046 33.4711 90.7646 33.6631 91.1186L33.4681 91.2265ZM77.2381 90.2425L77.0461 90.1226C77.2591 89.7866 77.4661 89.4445 77.6731 89.0995L77.8651 89.2166C77.6581 89.5616 77.4511 89.9035 77.2381 90.2425ZM32.3791 88.7425C32.2501 88.3495 32.1421 87.9566 32.0581 87.5756L32.2771 87.5276C32.3611 87.9026 32.4661 88.2865 32.5771 88.6735L32.3791 88.7425ZM78.6271 87.9296L78.4291 87.8186C78.6271 87.4706 78.8221 87.1225 79.0291 86.7715L79.2271 86.8796C79.0201 87.2215 78.8221 87.5695 78.6271 87.9175V87.9296ZM79.9291 85.5565L79.7311 85.4485C79.9191 85.0965 80.1051 84.7426 80.2891 84.3866L80.4901 84.4916C80.3041 84.8366 80.1181 85.1995 79.9291 85.5445V85.5565ZM81.1771 83.1565L80.9791 83.0546C81.1591 82.6976 81.3391 82.3405 81.5221 81.9835L81.7231 82.0825L81.1771 83.1565ZM82.3951 80.7386L82.1941 80.6395L82.7311 79.5625L82.9321 79.6645L82.3951 80.7386ZM83.5951 78.3206L83.3941 78.2186L83.9371 77.1445L84.1381 77.2465L83.5951 78.3206ZM84.8191 75.9206L84.6211 75.8185L85.1731 74.7505L85.3741 74.8556L84.8191 75.9206ZM86.0761 73.5206L85.8781 73.4126C86.0671 73.0616 86.2591 72.7105 86.4511 72.3595L86.6491 72.4675C86.4631 72.8005 86.2741 73.1515 86.1001 73.4995L86.0761 73.5206ZM87.3811 71.1626L87.1831 71.0515C87.3811 70.7035 87.5821 70.3586 87.7831 70.0135L87.9781 70.1275C87.7861 70.4545 87.6001 70.7995 87.3901 71.1445L87.3811 71.1626ZM88.7521 68.8465L88.5601 68.7265C88.7701 68.3875 88.9801 68.0486 89.1961 67.7126L89.3881 67.8325C89.1811 68.1505 88.9681 68.4895 88.7611 68.8285L88.7521 68.8465ZM90.2071 66.5815L90.0181 66.4556C90.2431 66.1226 90.4711 65.7926 90.7021 65.4626L90.8851 65.5945C90.6631 65.9035 90.4381 66.2336 90.2161 66.5635L90.2071 66.5815ZM91.7641 64.3765L91.5811 64.2445C91.8211 63.9235 92.0641 63.6026 92.3131 63.2876L92.4901 63.4255C92.2531 63.7225 92.0101 64.0405 91.7731 64.3585L91.7641 64.3765ZM93.4291 62.2585L93.2551 62.1145C93.5131 61.8145 93.7741 61.4995 94.0381 61.1995L94.2061 61.3465C93.9511 61.6286 93.6931 61.9345 93.4381 62.2405L93.4291 62.2585ZM95.2291 60.2395L95.0641 60.0835C95.3401 59.7835 95.6161 59.5045 95.9011 59.2195L96.0601 59.3785C95.7721 59.6425 95.4961 59.9306 95.2231 60.2216L95.2291 60.2395ZM97.1371 58.3345L96.9811 58.1695C97.2811 57.8965 97.5811 57.6266 97.8811 57.3626L98.0281 57.5306C97.7161 57.7765 97.4191 58.0465 97.1311 58.3165L97.1371 58.3345ZM99.1651 56.5645L99.0241 56.3905C99.3241 56.1355 99.6541 55.8866 99.9691 55.6466L100.107 55.8235C99.7891 56.0455 99.4711 56.2946 99.1591 56.5466L99.1651 56.5645ZM101.313 54.9415L101.184 54.7585C101.511 54.5305 101.847 54.3025 102.183 54.0835L102.306 54.2725C101.967 54.4705 101.634 54.6985 101.307 54.9235L101.313 54.9415ZM103.575 53.4775L103.458 53.2855C103.803 53.0785 104.154 52.8745 104.502 52.6855L104.61 52.8805C104.259 53.0545 103.911 53.2555 103.569 53.4595L103.575 53.4775Z" fill="#263238"/>
<path d="M105.987 52.1277L105.885 51.9267L106.425 51.6597L106.524 51.8607L105.987 52.1277Z" fill="#263238"/>
<path d="M103.182 50.052L101.538 54.564L104.991 51.87L118.185 47.085L103.182 50.052Z" fill="#859ED3"/>
<path opacity="0.1" d="M103.182 50.052L101.538 54.564L104.991 51.87L118.185 47.085L103.182 50.052Z" fill="#17153E"/>
<path d="M105.432 52.9226L101.538 54.5636L104.991 51.8696L105.432 52.9226Z" fill="#263238"/>
<path d="M104.991 51.87L118.185 47.085L107.361 57.645L104.991 51.87Z" fill="#859ED3"/>
<path d="M103.182 50.0518L97.7012 46.5088L118.185 47.0848L103.182 50.0518Z" fill="#859ED3"/>
<path d="M51.2218 115.14H19.8298V116.271H51.2218V115.14Z" fill="#455A64"/>
<path d="M51.2218 122.391H19.8298V123.522H51.2218V122.391Z" fill="#455A64"/>
<path d="M51.2218 123.126H19.8298V123.519H51.2218V123.126Z" fill="#37474F"/>
<path d="M52.2631 123.522H18.7891V125.34H52.2631V123.522Z" fill="#455A64"/>
<path d="M49.6709 116.271H21.3809V122.391H49.6709V116.271Z" fill="#455A64"/>
<path d="M49.6709 116.271H21.3809V117.735H49.6709V116.271Z" fill="#37474F"/>
<path d="M49.6709 120.927H21.3809V122.391H49.6709V120.927Z" fill="#37474F"/>
<path d="M29.1001 85.3076C29.1001 85.3076 27.1801 82.8476 27.2551 82.6076C27.3301 82.3676 32.1931 80.1326 35.1871 80.8076C38.1811 81.4826 46.6591 85.6946 48.3301 92.4296C50.0011 99.1646 45.1381 108.816 45.0151 111.06C44.9524 112.458 45.1897 113.853 45.7111 115.152H43.2421C43.2421 115.152 41.9221 112.632 42.7441 108.852C43.5661 105.072 45.7111 97.9526 44.7631 94.0616C43.8151 90.1706 37.3831 84.9836 35.4631 84.2847C33.5431 83.5856 29.1001 85.3076 29.1001 85.3076Z" fill="#263238"/>
<path d="M44.5921 115.14H24.4441C24.4441 115.14 24.4441 109.92 26.4391 106.629C28.4341 103.338 33.2191 99.9447 34.1851 98.3817C34.7614 97.4464 35.0202 96.35 34.9231 95.2557C34.0177 96.4827 32.7074 97.3499 31.2241 97.7037C29.8116 98.0495 28.3309 97.9976 26.9461 97.5537C26.9461 97.5537 23.5771 98.6517 23.3461 98.8827C23.1151 99.1137 22.3501 99.7827 21.7501 99.8097C21.1501 99.8367 19.2661 97.7997 19.2661 95.9997C19.2661 94.4997 25.6711 88.9257 25.6711 88.9257C25.6711 88.9257 26.5351 86.8617 26.7691 86.3967C27.0031 85.9317 32.9191 83.0967 34.4821 83.2047C36.0451 83.3127 42.9091 87.1047 45.1921 92.0517C47.3851 96.8067 45.0151 104.376 44.1931 107.652C42.9961 112.464 44.5921 115.14 44.5921 115.14Z" fill="#455A64"/>
<path d="M26.946 91.5837L30.342 89.7237C30.342 89.7237 29.097 89.4237 28.335 89.7717C27.573 90.1197 26.946 91.5837 26.946 91.5837Z" fill="#263238"/>
<path d="M31.923 85.6768C31.923 85.6768 29.145 81.1469 29.1 80.6399C29.073 80.3159 32.964 81.1649 34.011 81.8879C35.058 82.6109 37.08 84.8339 37.08 84.8339L31.923 85.6768Z" fill="#455A64"/>
<path d="M30.3423 81.5757C30.3423 81.5757 32.2773 82.1517 32.6583 82.5957C33.0728 83.1644 33.4544 83.7564 33.8013 84.3687" fill="#263238"/>
<path d="M24.5011 113.865L43.7731 111.855C43.9081 113.991 44.5921 115.14 44.5921 115.14H24.4441L24.5011 113.865Z" fill="#37474F"/>
<path d="M128.802 18.2759H91.4849V41.7839H128.802V18.2759Z" fill="#EBEBEB"/>
<path d="M94.5598 23.6577C99.7378 23.6247 104.916 23.6337 110.091 23.6217C115.266 23.6097 120.447 23.6217 125.622 23.6577C120.447 23.6907 115.269 23.6817 110.091 23.6937C104.913 23.7057 99.7378 23.6997 94.5598 23.6577Z" fill="#A6A6A6"/>
<path d="M94.5598 26.7267C99.7378 26.6997 104.916 26.6997 110.1 26.6997C115.284 26.6997 120.456 26.6997 125.631 26.7357C120.456 26.7687 115.278 26.7597 110.1 26.7747C104.922 26.7897 99.7378 26.7597 94.5598 26.7267Z" fill="#A6A6A6"/>
<path d="M94.5598 29.7959C99.7378 29.7629 104.916 29.7719 110.091 29.7599C115.266 29.7479 120.447 29.7599 125.622 29.7959C120.447 29.8289 115.269 29.8199 110.091 29.8349C104.913 29.8499 99.7378 29.8289 94.5598 29.7959Z" fill="#A6A6A6"/>
<path d="M94.5598 32.8647C99.7378 32.8317 104.916 32.8407 110.091 32.8287C115.266 32.8167 120.447 32.8287 125.622 32.8647C120.447 32.8977 115.269 32.8887 110.091 32.9037C104.913 32.9187 99.7378 32.8977 94.5598 32.8647Z" fill="#A6A6A6"/>
<path d="M94.5598 35.9341C99.7378 35.9011 104.916 35.9101 110.091 35.8981C115.266 35.8861 120.447 35.8981 125.622 35.9341C120.447 35.9671 115.269 35.9581 110.091 35.9731C104.913 35.9881 99.7378 35.9671 94.5598 35.9341Z" fill="#A6A6A6"/>
<path d="M100.815 21.6631C100.86 24.5311 100.848 27.3991 100.866 30.2671C100.884 33.1351 100.866 36.0001 100.815 38.8681C100.77 36.0001 100.779 33.1321 100.761 30.2671C100.743 27.4021 100.77 24.5311 100.815 21.6631Z" fill="#A6A6A6"/>
<path d="M106.2 21.6631C106.248 24.5311 106.236 27.3991 106.254 30.2671C106.272 33.1351 106.254 36.0001 106.2 38.8681C106.155 36.0001 106.167 33.1321 106.149 30.2671C106.131 27.4021 106.14 24.5311 106.2 21.6631Z" fill="#A6A6A6"/>
<path d="M111.558 21.6631C111.603 24.5311 111.591 27.3991 111.612 30.2671C111.633 33.1351 111.612 36.0001 111.558 38.8681C111.513 36.0001 111.522 33.1321 111.504 30.2671C111.486 27.4021 111.513 24.5311 111.558 21.6631Z" fill="#A6A6A6"/>
<path d="M116.928 21.6631C116.976 24.5311 116.964 27.3991 116.982 30.2671C117 33.1351 116.982 36.0001 116.928 38.8681C116.883 36.0001 116.895 33.1321 116.877 30.2671C116.859 27.4021 116.883 24.5311 116.928 21.6631Z" fill="#A6A6A6"/>
<path d="M122.301 21.6631C122.346 24.5311 122.334 27.3991 122.355 30.2671C122.376 33.1351 122.355 36.0001 122.301 38.8681C122.256 36.0001 122.268 33.1321 122.247 30.2671C122.226 27.4021 122.256 24.5311 122.301 21.6631Z" fill="#A6A6A6"/>
<path opacity="0.5" d="M95.343 33.7081C96.291 33.7081 96.843 30.5911 98.199 30.5911C99.555 30.5911 99.684 32.8651 100.815 32.8651C101.946 32.8651 101.91 28.8691 103.431 28.8691C104.952 28.8691 104.595 30.4921 106.185 30.4921C107.775 30.4921 107.175 26.7271 108.837 26.7271C110.499 26.7271 109.827 31.914 111.558 31.914C112.653 31.914 113.076 30.2671 114.384 30.2671C115.251 30.2671 115.761 31.089 116.892 31.089C118.023 31.089 118.272 27.9211 119.685 27.9211C121.098 27.9211 121.26 29.7961 122.301 29.7961C123.342 29.7961 123.714 26.7271 125.622 26.7271V38.868H95.343V33.7081Z" fill="#859ED3"/>
<path d="M95.343 33.8577V33.5577C95.643 33.5577 96.024 32.8287 96.315 32.2977C96.81 31.3977 97.323 30.4407 98.199 30.4407C99.075 30.4407 99.459 31.1307 99.825 31.7427C100.125 32.2197 100.425 32.7147 100.815 32.7147C101.169 32.7147 101.475 31.7547 101.697 31.0557C102.066 29.9067 102.444 28.7187 103.431 28.7187C104.31 28.7187 104.655 29.1867 104.958 29.5977C105.261 30.0087 105.51 30.3417 106.185 30.3417C106.785 30.3417 107.037 29.4627 107.268 28.6107C107.541 27.6117 107.823 26.5767 108.837 26.5767C109.851 26.5767 110.1 27.8787 110.373 29.2587C110.595 30.3747 110.868 31.7637 111.558 31.7637C111.969 31.7637 112.308 31.4187 112.665 31.0587C113.097 30.6147 113.592 30.1167 114.384 30.1167C114.812 30.1432 115.226 30.2818 115.584 30.5187C115.972 30.7725 116.42 30.9175 116.883 30.9387C117.276 30.9387 117.633 30.1857 117.921 29.5797C118.344 28.6797 118.782 27.7797 119.676 27.7797C120.57 27.7797 121.005 28.3797 121.392 28.9077C121.674 29.2917 121.941 29.6547 122.292 29.6547C122.592 29.6547 122.931 29.0727 123.228 28.5567C123.738 27.6777 124.374 26.5857 125.613 26.5857V26.8857C124.659 26.8857 124.113 27.8337 123.621 28.6857C123.204 29.4027 122.877 29.9697 122.292 29.9697C121.707 29.9697 121.359 29.5287 121.014 29.0697C120.669 28.6107 120.309 28.1067 119.676 28.1067C119.076 28.1067 118.683 28.9587 118.323 29.7117C117.927 30.5517 117.582 31.2747 116.883 31.2747C116.329 31.2571 115.79 31.0902 115.323 30.7917C115.042 30.5987 114.715 30.482 114.375 30.4527C113.805 30.4527 113.397 30.8637 113.004 31.2657C112.611 31.6677 112.182 32.0997 111.549 32.0997C110.49 32.0997 110.223 30.7557 109.944 29.3367C109.731 28.2567 109.464 26.9127 108.828 26.9127C108.192 26.9127 107.904 27.8637 107.676 28.7127C107.4 29.7267 107.139 30.6867 106.176 30.6867C105.213 30.6867 104.889 30.2037 104.574 29.7867C104.259 29.3697 104.043 29.0697 103.422 29.0697C102.801 29.0697 102.402 30.2367 102.105 31.1697C101.766 32.2287 101.505 33.0627 100.806 33.0627C100.107 33.0627 99.786 32.5017 99.426 31.9077C99.093 31.3587 98.751 30.7887 98.19 30.7887C97.629 30.7887 97.104 31.7127 96.69 32.4537C96.27 33.2157 95.922 33.8577 95.343 33.8577Z" fill="#859ED3"/>
<path d="M95.3429 21.8491C95.3759 24.6871 95.4059 27.5221 95.4089 30.3601L95.4419 38.8681L95.3429 38.7991L110.484 38.8171H118.053L125.622 38.8561L118.053 38.8951L110.484 38.9101L95.3429 38.9281H95.2439V38.8561L95.2769 30.3481C95.2799 27.5221 95.3069 24.6871 95.3429 21.8491Z" fill="#A6A6A6"/>
<path d="M55.227 47.3101H18.864V67.3471H55.227V47.3101Z" fill="#EBEBEB"/>
<path d="M53.1152 49.8389H24.3542V51.5699H53.1152V49.8389Z" fill="white"/>
<path d="M44.2592 49.8389H24.3542V51.5699H44.2592V49.8389Z" fill="#455A64"/>
<path d="M53.1152 53.1509H24.3542V54.8819H53.1152V53.1509Z" fill="white"/>
<path d="M50.1752 53.1509H24.3542V54.8819H50.1752V53.1509Z" fill="#859ED3"/>
<path d="M53.1152 56.4629H24.3542V58.1939H53.1152V56.4629Z" fill="white"/>
<path d="M42.6843 56.4629H24.3542V58.1939H42.6843V56.4629Z" fill="#455A64"/>
<path d="M53.1152 59.7749H24.3542V61.5059H53.1152V59.7749Z" fill="white"/>
<path d="M45.5072 59.7749H24.3542V61.5059H45.5072V59.7749Z" fill="#859ED3"/>
<path d="M53.1152 63.0869H24.3542V64.8179H53.1152V63.0869Z" fill="white"/>
<path d="M38.1182 63.0869H24.3542V64.8179H38.1182V63.0869Z" fill="#455A64"/>
<path d="M23.4421 56.2769H21.3391V58.3799H23.4421V56.2769Z" fill="#455A64"/>
<path d="M22.2 57.5521H21.918V57.2281H22.2C22.2 57.2041 22.2 57.1861 22.2 57.1651C22.2 57.0811 22.2 56.9941 22.2 56.9101C22.2018 56.827 22.2329 56.7471 22.2878 56.6846C22.3426 56.622 22.4177 56.5808 22.5 56.5681C22.6178 56.5606 22.7361 56.5606 22.854 56.5681V56.8681H22.74C22.703 56.8652 22.6659 56.8652 22.629 56.8681C22.604 56.8711 22.5811 56.8831 22.5645 56.902C22.5479 56.9208 22.5388 56.945 22.539 56.9701C22.539 57.0541 22.539 57.1351 22.539 57.2251H22.86C22.86 57.3301 22.833 57.4291 22.818 57.5251C22.818 57.5251 22.791 57.5461 22.779 57.5461H22.539V58.3771H22.2V57.5521Z" fill="white"/>
<path d="M23.4421 59.5889H21.3391V61.6919H23.4421V59.5889Z" fill="#859ED3"/>
<path d="M22.4252 60.7501H22.1252V60.5671H22.6412V60.6751C22.6437 60.8062 22.5943 60.9329 22.5039 61.0279C22.4135 61.1228 22.2893 61.1782 22.1582 61.1821C22.0334 61.1941 21.9083 61.1623 21.8044 61.0921C21.7004 61.0219 21.6242 60.9177 21.5887 60.7974C21.5532 60.6771 21.5607 60.5482 21.6099 60.4328C21.6591 60.3175 21.7469 60.2228 21.8582 60.1651C21.9569 60.1129 22.0691 60.0919 22.1799 60.1047C22.2908 60.1176 22.3951 60.1638 22.4792 60.2371C22.4372 60.2791 22.3952 60.3241 22.3532 60.3631C22.3112 60.4021 22.3292 60.3631 22.3172 60.3631C22.2724 60.343 22.2263 60.326 22.1792 60.3121C22.1358 60.303 22.091 60.3028 22.0475 60.3113C22.004 60.3199 21.9627 60.3372 21.926 60.3621C21.8893 60.3871 21.858 60.4191 21.834 60.4564C21.81 60.4937 21.7938 60.5354 21.7862 60.5791C21.7771 60.6229 21.7768 60.6681 21.7853 60.7119C21.7938 60.7558 21.811 60.7976 21.8359 60.8347C21.8608 60.8719 21.8928 60.9037 21.9301 60.9283C21.9674 60.953 22.0093 60.9699 22.0532 60.9781C22.0927 60.9888 22.1339 60.9913 22.1743 60.9855C22.2147 60.9797 22.2536 60.9657 22.2884 60.9443C22.3232 60.923 22.3533 60.8947 22.3769 60.8614C22.4004 60.828 22.4169 60.7901 22.4252 60.7501Z" fill="white"/>
<path d="M23.211 60.5611V60.6751C23.211 60.6751 23.211 60.6991 23.211 60.7171H23.061V60.8701H22.905V60.7201H22.752V60.5641H22.905V60.4111H23.058V60.5611H23.211Z" fill="white"/>
<path d="M23.4421 62.9009H21.3391V65.0039H23.4421V62.9009Z" fill="#455A64"/>
<path d="M21.5999 64.4733C21.7677 64.4802 21.9329 64.4294 22.0679 64.3293C21.8729 64.2723 21.7949 64.2123 21.7679 64.1013H21.8969C21.8257 64.0804 21.763 64.0375 21.7177 63.9787C21.6724 63.92 21.6469 63.8484 21.6449 63.7743L21.7769 63.8073C21.6359 63.6333 21.6089 63.5073 21.6929 63.3693C21.7771 63.4704 21.8814 63.553 21.9991 63.6118C22.1168 63.6707 22.2454 63.7045 22.3769 63.7113C22.3785 63.6933 22.3785 63.6752 22.3769 63.6573C22.3729 63.592 22.3883 63.527 22.421 63.4704C22.4538 63.4138 22.5024 63.3681 22.561 63.339C22.6195 63.3099 22.6853 63.2987 22.7502 63.3067C22.8151 63.3148 22.8762 63.3417 22.9259 63.3843C22.9359 63.3933 22.9481 63.3994 22.9613 63.4021C22.9745 63.4047 22.9882 63.4037 23.0009 63.3993L23.1629 63.3393C23.1385 63.4058 23.0933 63.4627 23.0339 63.5013L23.1959 63.4593C23.1539 63.5013 23.1149 63.5433 23.0699 63.5823C23.0592 63.591 23.0507 63.602 23.045 63.6145C23.0393 63.6269 23.0365 63.6406 23.0369 63.6543C23.0379 63.8897 22.9506 64.117 22.7924 64.2914C22.6341 64.4658 22.4163 64.5745 22.1819 64.5963C21.9887 64.6145 21.7944 64.5748 21.6239 64.4823L21.5999 64.4733Z" fill="white"/>
<path d="M23.4572 49.6528H21.3542V51.7558H23.4572V49.6528Z" fill="#455A64"/>
<path d="M23.1782 50.2801C23.1821 50.2341 23.1761 50.1877 23.1607 50.1442C23.1452 50.1006 23.1205 50.0609 23.0884 50.0276C23.0563 49.9944 23.0175 49.9684 22.9745 49.9514C22.9315 49.9344 22.8854 49.9268 22.8392 49.9291C22.5392 49.9291 22.2602 49.9291 21.9722 49.9291C21.9269 49.9269 21.8816 49.9343 21.8392 49.9508C21.7969 49.9672 21.7586 49.9924 21.7266 50.0247C21.6946 50.0569 21.6698 50.0955 21.6537 50.138C21.6376 50.1804 21.6306 50.2258 21.6332 50.2711C21.6332 50.4151 21.6332 50.5711 21.6332 50.7031C21.6332 50.8351 21.6332 50.9851 21.6332 51.1261C21.6293 51.173 21.6355 51.2201 21.6513 51.2644C21.667 51.3086 21.6921 51.349 21.7248 51.3828C21.7574 51.4166 21.797 51.4431 21.8407 51.4604C21.8844 51.4776 21.9313 51.4854 21.9782 51.4831H22.8362C22.8822 51.4853 22.9282 51.4778 22.9711 51.461C23.014 51.4442 23.0529 51.4185 23.0851 51.3857C23.1174 51.3528 23.1424 51.3135 23.1585 51.2703C23.1745 51.2272 23.1812 51.1811 23.1782 51.1351C23.1802 50.8451 23.1802 50.5601 23.1782 50.2801ZM23.0402 51.1381C23.0435 51.1658 23.0405 51.1939 23.0315 51.2203C23.0225 51.2468 23.0076 51.2708 22.988 51.2907C22.9684 51.3106 22.9446 51.3258 22.9183 51.3352C22.892 51.3446 22.864 51.348 22.8362 51.3451H21.9782C21.9502 51.3485 21.9218 51.3455 21.8952 51.3363C21.8685 51.3271 21.8443 51.3119 21.8243 51.292C21.8044 51.272 21.7893 51.2478 21.7801 51.2212C21.7709 51.1945 21.7678 51.1661 21.7712 51.1381C21.7712 50.8501 21.7712 50.5621 21.7712 50.2741C21.7679 50.246 21.771 50.2175 21.7802 50.1907C21.7894 50.164 21.8045 50.1396 21.8243 50.1195C21.8442 50.0993 21.8683 50.0839 21.895 50.0743C21.9216 50.0647 21.9501 50.0612 21.9782 50.0641H22.8332C22.8611 50.0613 22.8892 50.0647 22.9156 50.0741C22.942 50.0835 22.966 50.0987 22.9858 50.1185C23.0056 50.1383 23.0208 50.1623 23.0302 50.1887C23.0396 50.2151 23.043 50.2432 23.0402 50.2711C23.0402 50.4151 23.0402 50.5711 23.0402 50.7061C23.0402 50.8411 23.0432 51.0001 23.0402 51.1381Z" fill="white"/>
<path d="M22.4072 50.301C22.3264 50.2986 22.2467 50.3204 22.1784 50.3637C22.1101 50.407 22.0563 50.4698 22.024 50.5439C21.9917 50.618 21.9823 50.7001 21.997 50.7796C22.0118 50.8591 22.05 50.9324 22.1067 50.99C22.1634 51.0476 22.2361 51.0869 22.3154 51.1028C22.3947 51.1188 22.4769 51.1106 22.5515 51.0794C22.6261 51.0482 22.6896 50.9954 22.734 50.9278C22.7783 50.8602 22.8014 50.7808 22.8002 50.7C22.7994 50.5954 22.758 50.4953 22.6846 50.4208C22.6112 50.3463 22.5117 50.3033 22.4072 50.301ZM22.4072 50.973C22.3371 50.9714 22.2704 50.9427 22.2212 50.8929C22.1719 50.843 22.144 50.776 22.1432 50.706C22.1502 50.6396 22.1815 50.5783 22.2311 50.5337C22.2807 50.4891 22.345 50.4644 22.4117 50.4644C22.4784 50.4644 22.5427 50.4891 22.5923 50.5337C22.6419 50.5783 22.6732 50.6396 22.6802 50.706C22.6798 50.7419 22.6723 50.7775 22.6579 50.8105C22.6436 50.8435 22.6229 50.8733 22.5969 50.8982C22.5709 50.923 22.5402 50.9425 22.5066 50.9553C22.473 50.9682 22.4371 50.9742 22.4012 50.973H22.4072Z" fill="white"/>
<path d="M22.9321 50.2889C22.9321 50.3135 22.9223 50.3372 22.9049 50.3546C22.8874 50.3721 22.8638 50.3819 22.8391 50.3819C22.8144 50.3819 22.7908 50.3721 22.7733 50.3546C22.7559 50.3372 22.7461 50.3135 22.7461 50.2889C22.7469 50.2766 22.75 50.2647 22.7554 50.2537C22.7608 50.2427 22.7683 50.2329 22.7775 50.2248C22.7867 50.2167 22.7974 50.2105 22.809 50.2066C22.8206 50.2027 22.8329 50.2011 22.8451 50.2019C22.8679 50.2026 22.8896 50.212 22.9058 50.2282C22.9219 50.2443 22.9313 50.266 22.9321 50.2889Z" fill="white"/>
<path d="M23.4421 52.9351H21.3391V55.0381H23.4421V52.9351Z" fill="#859ED3"/>
<path d="M21.5999 54.7649C21.6359 54.645 21.6659 54.534 21.6989 54.423C21.7108 54.39 21.7108 54.3539 21.6989 54.321C21.6476 54.2152 21.621 54.0991 21.6211 53.9815C21.6211 53.864 21.6479 53.748 21.6993 53.6422C21.7507 53.5365 21.8255 53.4438 21.9179 53.3712C22.0103 53.2985 22.1181 53.2478 22.2329 53.2228C22.3478 53.1978 22.4669 53.1993 22.5811 53.227C22.6954 53.2547 22.8019 53.3079 22.8926 53.3827C22.9832 53.4576 23.0558 53.552 23.1047 53.6589C23.1536 53.7658 23.1776 53.8824 23.1749 54C23.1664 54.1936 23.0866 54.3773 22.951 54.5157C22.8153 54.6541 22.6333 54.7376 22.4399 54.7499C22.307 54.7564 22.1745 54.7317 22.0529 54.6779C22.0287 54.669 22.0021 54.669 21.9779 54.6779L21.5999 54.7649ZM21.7889 54.582C21.8669 54.564 21.9329 54.543 21.9989 54.531C22.0093 54.5265 22.0205 54.5242 22.0319 54.5242C22.0432 54.5242 22.0544 54.5265 22.0649 54.531C22.1623 54.5815 22.2701 54.6092 22.3799 54.6119C22.4749 54.6133 22.569 54.5937 22.6556 54.5546C22.7422 54.5155 22.8191 54.4579 22.8809 54.3857C22.9428 54.3136 22.988 54.2287 23.0134 54.1372C23.0388 54.0456 23.0437 53.9496 23.0279 53.856C23.0104 53.7311 22.954 53.6149 22.8668 53.5239C22.7795 53.4329 22.6659 53.3717 22.5419 53.349C22.4186 53.3207 22.2898 53.3289 22.1712 53.3727C22.0525 53.4164 21.9492 53.4938 21.8738 53.5953C21.7984 53.6967 21.7542 53.818 21.7466 53.9442C21.7389 54.0704 21.7682 54.1961 21.8309 54.306C21.8398 54.3302 21.8398 54.3568 21.8309 54.381C21.8226 54.4486 21.8106 54.5157 21.7949 54.582H21.7889Z" fill="white"/>
<path d="M22.0531 53.6701C22.1071 53.5981 22.1761 53.6101 22.2151 53.6911C22.2274 53.7151 22.2374 53.7402 22.2451 53.7661C22.2581 53.7853 22.2632 53.8089 22.2593 53.8318C22.2554 53.8548 22.2428 53.8753 22.2241 53.8891C22.2189 53.8939 22.2147 53.8997 22.2119 53.9061C22.2091 53.9126 22.2076 53.9196 22.2076 53.9266C22.2076 53.9336 22.2091 53.9406 22.2119 53.9471C22.2147 53.9535 22.2189 53.9593 22.2241 53.9641C22.2822 54.0524 22.3644 54.1222 22.4611 54.1651C22.4731 54.1719 22.4872 54.1738 22.5006 54.1704C22.514 54.1671 22.5256 54.1587 22.5331 54.1471C22.6021 54.0661 22.6021 54.0661 22.6981 54.1111L22.7311 54.1291C22.7478 54.1332 22.7629 54.1422 22.7745 54.1549C22.7861 54.1677 22.7936 54.1836 22.7962 54.2006C22.7988 54.2176 22.7962 54.235 22.7889 54.2506C22.7816 54.2662 22.7698 54.2792 22.7551 54.2881C22.7275 54.3162 22.6928 54.336 22.6547 54.3456C22.6166 54.3551 22.5765 54.3539 22.5391 54.3421C22.3404 54.288 22.1705 54.159 22.0651 53.9821C22.0284 53.9315 22.0085 53.8706 22.0081 53.8081C22.0092 53.7587 22.0248 53.7107 22.0531 53.6701Z" fill="white"/>
<path d="M49.983 130.539C50.64 130.752 69.432 130.506 70.14 130.044C70.413 129.873 70.536 127.131 70.593 123.816V123.714C70.593 123.03 70.614 122.325 70.614 121.614C70.614 121.515 70.614 121.416 70.614 121.314L69.714 111.564L57.144 111.69L58.383 121.347V121.731L58.458 123.729V123.933C58.458 123.933 51.306 127.233 50.58 127.833C49.854 128.433 49.323 130.329 49.983 130.539Z" fill="#EB9481"/>
<path d="M49.983 130.539C50.64 130.752 69.432 130.506 70.14 130.044C70.413 129.873 70.536 127.131 70.593 123.816V123.714C70.593 123.03 70.614 122.325 70.614 121.614C70.614 121.515 70.614 121.416 70.614 121.314L58.371 121.347V121.731L58.446 123.729V123.933C58.446 123.933 51.294 127.233 50.568 127.833C49.842 128.433 49.323 130.329 49.983 130.539Z" fill="#EBEBEB"/>
<path d="M49.98 130.536C50.319 130.647 55.425 130.635 60.414 130.536C61.419 130.518 62.415 130.494 63.366 130.467C66.924 130.371 69.867 130.224 70.14 130.047C70.413 129.87 70.533 127.212 70.587 123.957C70.587 123.912 70.587 123.867 70.587 123.819C70.587 123.771 70.587 123.747 70.587 123.714H70.572L58.464 123.735V123.942C58.464 123.942 51.315 127.242 50.589 127.842C49.863 128.442 49.323 130.326 49.98 130.536Z" fill="#859ED3"/>
<path d="M50.1868 129.807C53.3518 129.687 66.1348 129.507 69.2728 129.63C69.2998 129.63 69.2998 129.648 69.2728 129.651C66.1378 129.837 53.3548 129.915 50.1868 129.858C50.1178 129.858 50.1178 129.81 50.1868 129.807Z" fill="#263238"/>
<path d="M57.1199 123.786C58.3619 123.537 59.8889 123.711 60.8549 124.584C60.8909 124.62 60.8549 124.671 60.8009 124.659C59.6053 124.289 58.3731 124.05 57.1259 123.945C57.1073 123.942 57.0902 123.933 57.0777 123.919C57.0651 123.905 57.0579 123.887 57.0572 123.868C57.0565 123.849 57.0623 123.831 57.0738 123.816C57.0852 123.801 57.1016 123.79 57.1199 123.786Z" fill="#263238"/>
<path d="M56.226 124.341C57.471 124.092 58.998 124.263 59.961 125.139C59.997 125.172 59.961 125.226 59.91 125.214C58.7138 124.846 57.4819 124.607 56.235 124.5C56.2139 124.501 56.1932 124.494 56.1775 124.48C56.1617 124.466 56.1522 124.446 56.151 124.425C56.1498 124.404 56.157 124.383 56.1711 124.368C56.1852 124.352 56.2049 124.342 56.226 124.341Z" fill="#263238"/>
<path d="M55.3351 124.896C56.5771 124.647 58.1041 124.818 59.0671 125.694C59.1061 125.727 59.0671 125.778 59.0161 125.766C57.8197 125.399 56.5878 125.159 55.3411 125.052C55.3204 125.053 55.3002 125.045 55.285 125.031C55.2698 125.017 55.2609 124.997 55.2601 124.977C55.2593 124.956 55.2667 124.936 55.2808 124.921C55.2949 124.906 55.3144 124.897 55.3351 124.896Z" fill="#263238"/>
<path d="M60.4141 130.533C61.4191 130.515 62.4151 130.491 63.3661 130.464C66.9241 130.368 69.8671 130.221 70.1401 130.044C70.4131 129.867 70.5331 127.209 70.5871 123.954C70.5871 123.909 70.5871 123.864 70.5871 123.816C70.5871 123.768 70.5871 123.744 70.5871 123.711H70.5721C68.9191 124.875 63.0721 128.766 60.4141 130.533Z" fill="#263238"/>
<path d="M57.645 123.777H71.175C71.175 123.777 68.451 92.1689 68.559 91.6169C68.694 90.9119 69.492 87.7169 70.554 83.5319C70.8899 82.2239 71.247 80.8319 71.622 79.3678C72.63 75.4348 73.7429 71.1389 74.7119 67.3979C76.1669 61.7969 77.301 57.4438 77.301 57.4438H65.832C65.832 57.4438 64.5 61.6798 62.811 67.1998C60.066 76.1609 56.4 88.4998 56.037 91.4999C55.452 96.3238 57.645 123.777 57.645 123.777Z" fill="#37474F"/>
<path d="M58.2419 121.467C60.3089 121.425 59.7149 121.407 61.7819 121.389C62.7959 121.389 69.4409 121.32 70.3859 121.476C70.3915 121.476 70.3968 121.478 70.4008 121.482C70.4047 121.486 70.4069 121.491 70.4069 121.497C70.4069 121.502 70.4047 121.508 70.4008 121.512C70.3968 121.516 70.3915 121.518 70.3859 121.518C69.4409 121.674 62.7959 121.617 61.7819 121.608C59.7149 121.587 60.3089 121.572 58.2419 121.527C58.234 121.527 58.2263 121.524 58.2207 121.518C58.2151 121.512 58.2119 121.505 58.2119 121.497C58.2119 121.489 58.2151 121.481 58.2207 121.476C58.2263 121.47 58.234 121.467 58.2419 121.467Z" fill="#263238"/>
<path d="M66 89.7001C66.444 87.7441 67.107 85.8271 67.683 83.9071C68.855 80.0071 70.035 76.1071 71.223 72.2071C71.823 70.2571 72.423 68.3091 73.023 66.3631C73.325 65.3791 73.625 64.3961 73.923 63.4141C74.223 62.4541 74.568 61.5031 74.838 60.5341C74.949 60.1381 75.009 60.3541 74.868 60.8551C74.568 61.8661 74.301 62.8741 74.007 63.8821C73.425 65.8821 72.839 67.8751 72.249 69.8611C71.083 73.8171 69.9 77.7751 68.7 81.7351C68.1 83.7191 67.5 85.7041 66.9 87.6901C66.5977 88.6343 66.3532 89.5961 66.168 90.5701C66.0096 91.5891 65.9694 92.6229 66.048 93.6511C66.18 95.7211 66.42 97.7881 66.609 99.8551L67.185 106.065C67.567 110.183 67.945 114.303 68.319 118.425C68.367 118.947 68.412 119.469 68.451 119.991C68.466 120.165 68.199 120.153 68.181 119.991C67.737 115.917 67.395 111.831 67.011 107.751C66.627 103.671 66.252 99.6331 65.871 95.5711C65.775 94.5541 65.667 93.5311 65.667 92.5081C65.6733 91.5626 65.785 90.6208 66 89.7001Z" fill="#263238"/>
<path d="M67.1338 57.4438C67.9318 63.6028 69.4498 75.1439 70.5538 83.5439C73.1428 73.3919 77.3008 57.4438 77.3008 57.4438H67.1338Z" fill="#263238"/>
<path d="M64.317 130.719C64.977 130.935 83.766 130.758 84.477 130.299C84.75 130.128 84.885 127.389 84.951 124.074C84.951 124.038 84.951 124.005 84.951 123.969C84.966 123.285 84.978 122.583 84.981 121.869C84.981 121.773 84.981 121.674 84.981 121.569C85.026 116.787 84.681 111.822 84.681 111.822L72.399 111.903L72.741 121.56V121.941L72.81 123.942V124.146C72.81 124.146 65.649 127.446 64.92 128.019C64.191 128.592 63.66 130.5 64.317 130.719Z" fill="#EB9481"/>
<path d="M64.317 130.719C64.977 130.935 83.766 130.758 84.477 130.299C84.75 130.128 84.885 127.389 84.951 124.074C84.951 124.038 84.951 124.005 84.951 123.969C84.966 123.285 84.978 122.583 84.981 121.869C84.981 121.773 84.981 121.674 84.981 121.569H72.741V121.95L72.81 123.951V124.155C72.81 124.155 65.649 127.455 64.92 128.028C64.191 128.601 63.66 130.5 64.317 130.719Z" fill="#EBEBEB"/>
<path d="M64.3171 130.719C64.9771 130.935 83.7661 130.758 84.4771 130.299C84.7501 130.128 84.8851 127.389 84.9511 124.074C84.9511 124.038 84.9511 124.005 84.9511 123.969L72.8251 123.948V124.152C72.8251 124.152 65.6641 127.452 64.9351 128.025C64.2061 128.598 63.6601 130.5 64.3171 130.719Z" fill="#859ED3"/>
<path d="M64.5241 129.99C67.6921 129.882 80.4751 129.747 83.6131 129.882C83.6371 129.882 83.6371 129.9 83.6131 129.903C80.4751 130.077 67.6921 130.107 64.5241 130.041C64.4581 130.038 64.4581 129.99 64.5241 129.99Z" fill="#263238"/>
<path d="M71.481 123.993C72.723 123.75 74.25 123.927 75.21 124.806C75.249 124.839 75.21 124.893 75.159 124.881C73.9648 124.507 72.7337 124.262 71.487 124.152C71.4684 124.149 71.4513 124.14 71.4388 124.126C71.4262 124.112 71.419 124.094 71.4183 124.075C71.4176 124.056 71.4234 124.038 71.4349 124.023C71.4463 124.008 71.4626 123.997 71.481 123.993Z" fill="#263238"/>
<path d="M70.5839 124.545C71.8289 124.299 73.3559 124.476 74.3159 125.358C74.3549 125.391 74.3159 125.442 74.2649 125.43C73.0703 125.057 71.8393 124.813 70.5929 124.701C70.5722 124.702 70.5519 124.695 70.5364 124.681C70.5209 124.668 70.5116 124.648 70.5104 124.628C70.5092 124.607 70.5163 124.587 70.53 124.571C70.5438 124.556 70.5632 124.546 70.5839 124.545Z" fill="#263238"/>
<path d="M69.69 125.1C70.935 124.857 72.462 125.034 73.422 125.913C73.458 125.946 73.422 126 73.368 125.988C72.1739 125.613 70.9427 125.369 69.696 125.259C69.6774 125.256 69.6603 125.247 69.6478 125.233C69.6352 125.219 69.628 125.201 69.6273 125.182C69.6265 125.163 69.6324 125.145 69.6439 125.13C69.6553 125.115 69.6716 125.104 69.69 125.1Z" fill="#263238"/>
<path d="M66.2039 57.4438C66.2039 57.4438 66.4679 62.9308 67.7249 67.2778C67.8239 67.6378 67.9349 67.9919 68.0519 68.3309C69.2012 68.7954 70.3057 69.3638 71.3519 70.0288C71.3519 70.0288 71.4839 74.4448 71.6159 79.3678C71.7629 84.8728 71.9159 91.0108 71.8829 92.3128C71.7689 97.1848 72.4829 123.975 72.4829 123.975L86.0129 124.029C86.0129 124.029 83.5679 94.1129 83.5829 92.3279C83.6099 89.4599 82.9289 76.7789 82.4039 67.5328C82.0799 61.8328 81.8039 57.4438 81.8039 57.4438H66.2039Z" fill="#37474F"/>
<path d="M72.9631 121.569C75.0301 121.533 74.4361 121.515 76.5031 121.503C77.5141 121.503 84.1621 121.467 85.1071 121.629C85.1251 121.629 85.1251 121.668 85.1071 121.671C84.1591 121.824 77.5141 121.737 76.5031 121.722C74.4361 121.695 75.0271 121.68 72.9631 121.629C72.9552 121.629 72.9475 121.626 72.9419 121.62C72.9363 121.615 72.9331 121.607 72.9331 121.599C72.9331 121.591 72.9363 121.583 72.9419 121.578C72.9475 121.572 72.9552 121.569 72.9631 121.569Z" fill="#263238"/>
<path d="M80.7 59.4C80.949 66.948 81.213 74.496 81.552 82.041C81.891 89.586 82.347 97.182 82.98 104.733C83.334 108.954 83.667 114.888 84.123 119.097C84.1213 119.102 84.1182 119.106 84.1142 119.108C84.1102 119.111 84.1054 119.113 84.1005 119.113C84.0956 119.113 84.0908 119.111 84.0868 119.108C84.0828 119.106 84.0797 119.102 84.078 119.097C83.094 111.597 82.545 102.351 82.059 94.818C81.573 87.285 81.246 79.737 80.991 72.192C80.844 67.923 80.733 63.654 80.607 59.385C80.598 59.34 80.7 59.346 80.7 59.4Z" fill="#263238"/>
<path d="M67.4999 68.0037C68.8463 68.5651 70.1412 69.2427 71.3699 70.0287C71.3782 70.0353 71.3839 70.0446 71.386 70.0549C71.3881 70.0652 71.3866 70.076 71.3816 70.0853C71.3766 70.0946 71.3684 70.1018 71.3586 70.1058C71.3488 70.1097 71.338 70.11 71.3279 70.1067C70.0229 69.4737 68.6909 68.8647 67.4279 68.1597C67.4107 68.1482 67.3982 68.1309 67.3926 68.111C67.3871 68.0911 67.3887 68.0698 67.3974 68.051C67.4061 68.0322 67.4212 68.0172 67.44 68.0085C67.4587 67.9998 67.48 67.9981 67.4999 68.0037Z" fill="#263238"/>
<path d="M67.413 63.3477C67.503 63.8277 67.62 64.3047 67.713 64.7817C67.806 65.2587 67.884 65.6817 68.013 66.1317C68.1114 66.5608 68.3299 66.9531 68.643 67.2627C68.82 67.4247 69.012 67.5627 69.201 67.7217C69.3 67.8027 69.411 67.8777 69.516 67.9617C69.501 67.8957 69.492 67.8327 69.48 67.7667C69.447 67.5837 69.417 67.4037 69.387 67.2207C69.318 66.8157 69.252 66.4077 69.192 66.0027C69.069 65.2047 68.958 64.3977 68.79 63.6027C68.7919 63.5974 68.7953 63.5928 68.7999 63.5895C68.8045 63.5863 68.8099 63.5846 68.8155 63.5846C68.8211 63.5846 68.8266 63.5863 68.8312 63.5895C68.8357 63.5928 68.8392 63.5974 68.841 63.6027C69.039 64.3857 69.258 65.1597 69.441 65.9487C69.525 66.3357 69.828 68.2467 69.843 68.3847C69.858 68.5227 69.867 68.6637 69.873 68.8047C69.8895 68.9472 69.8895 69.0912 69.873 69.2337C69.873 69.2667 69.822 69.2607 69.807 69.2337C69.7494 69.1014 69.7091 68.9623 69.687 68.8197C69.651 68.6817 69.621 68.5437 69.597 68.4057C69.597 68.3547 69.579 68.3037 69.573 68.2527C69.384 68.1387 69.21 67.9857 69.033 67.8597C68.856 67.7337 68.652 67.5867 68.472 67.4367C68.1396 67.1565 67.9001 66.782 67.785 66.3627C67.6695 65.9133 67.5942 65.4544 67.56 64.9917C67.5 64.4457 67.455 63.8997 67.38 63.3597C67.359 63.3267 67.407 63.3147 67.413 63.3477Z" fill="#263238"/>
<path d="M71.5259 42.3837C71.0159 44.4837 65.4809 55.7817 65.5259 56.4837C65.5259 56.6517 68.8739 58.8837 68.9549 59.1567C69.2879 60.2337 63.7949 64.7847 62.5919 65.0547C59.0579 65.8527 55.9709 65.6877 56.0339 62.7867C56.1329 58.2357 64.1339 46.9647 68.2319 42.9867C70.9259 40.3617 72.0299 40.3257 71.5259 42.3837Z" fill="#EB9481"/>
<path d="M61.2449 65.598L67.7459 57.444C67.7459 57.444 65.8049 56.742 65.7629 56.289C65.7209 55.836 70.4219 46.164 71.4389 43.32C72.4559 40.476 71.6669 39.888 68.6189 42.327C65.5709 44.766 54.2609 60.57 55.9379 64.089C57.0929 66.516 61.2449 65.598 61.2449 65.598Z" fill="#859ED3"/>
<path d="M65.7598 56.343C65.4715 56.4148 65.1911 56.5153 64.9228 56.643C64.6508 56.763 64.3808 56.886 64.1128 57.012C63.5818 57.258 63.0538 57.513 62.5408 57.795C62.0278 58.077 61.5298 58.377 61.0408 58.695L60.6928 58.911L60.5548 58.959C60.3598 59.028 60.1648 59.103 59.9788 59.19C59.6156 59.3598 59.2638 59.5532 58.9258 59.769C58.9018 59.784 58.9258 59.82 58.9498 59.808C59.3017 59.6095 59.6677 59.437 60.0448 59.292L60.1948 59.238C59.9968 59.37 59.8048 59.508 59.6188 59.655C59.1202 60.0398 58.6462 60.4556 58.1998 60.9C58.1788 60.921 58.1998 60.951 58.2328 60.93C59.0368 60.15 60.0538 59.586 61.0228 59.037C61.9918 58.488 63.0088 57.855 64.0228 57.294C64.3228 57.132 64.6018 56.979 64.8988 56.832C65.2014 56.7007 65.4968 56.5535 65.7838 56.391C65.7894 56.3874 65.7934 56.3818 65.7952 56.3754C65.7969 56.369 65.7963 56.3622 65.7933 56.3562C65.7903 56.3503 65.7853 56.3457 65.7791 56.3432C65.7729 56.3408 65.7661 56.3407 65.7598 56.343Z" fill="#263238"/>
<path d="M83.2411 65.5979C83.1931 65.6459 63.3691 64.2899 63.2011 64.0709C62.9701 63.7709 68.9791 42.6149 71.2051 40.1068C71.6791 39.5698 74.4691 38.9998 75.9601 40.4069C79.1221 43.4069 81.3391 53.0368 81.8041 55.9289C82.5751 60.7019 83.4181 65.4209 83.2411 65.5979Z" fill="#859ED3"/>
<path d="M68.9999 44.6067C68.9999 44.5737 68.9549 44.5497 68.9429 44.5827C68.6159 45.3987 68.3129 46.2237 68.0159 47.0487C68.0309 46.9317 68.0429 46.8117 68.0519 46.6947C68.0759 46.3797 68.0729 46.0647 68.0999 45.7527C68.0999 45.7227 68.0549 45.7227 68.0549 45.7527C68.0369 46.0767 67.9769 46.3947 67.9289 46.7157C67.8809 47.0367 67.8479 47.2917 67.7999 47.5797L67.7729 47.7327C67.2929 49.1097 66.8429 50.4987 66.4019 51.8877C65.6219 54.3627 64.9019 56.8617 64.2269 59.3667C63.8429 60.7797 63.5069 62.2017 63.1919 63.6297C63.1936 63.6343 63.1967 63.6382 63.2007 63.641C63.2047 63.6438 63.2095 63.6453 63.2144 63.6453C63.2193 63.6453 63.2241 63.6438 63.2281 63.641C63.2321 63.6382 63.2352 63.6343 63.2369 63.6297C63.9719 61.1517 64.6829 58.6647 65.4149 56.1867C66.0869 53.9037 66.7949 51.6327 67.5149 49.3617C67.5184 49.3636 67.5222 49.3648 67.5262 49.3651C67.5302 49.3654 67.5342 49.3648 67.5379 49.3634C67.5417 49.362 67.545 49.3597 67.5478 49.3568C67.5506 49.3539 67.5526 49.3505 67.5539 49.3467L67.7069 48.7467C68.1449 47.3817 68.5889 45.9987 68.9999 44.6067Z" fill="#263238"/>
<path d="M70.6948 40.9857C70.5778 41.8857 70.3648 43.9617 71.7838 43.9317C72.3586 43.8704 72.9034 43.6444 73.3528 43.2807C73.8206 42.9527 74.2503 42.5734 74.6338 42.1497C75.0813 41.6905 75.4897 41.1948 75.8548 40.6677C75.8548 40.6467 75.9058 40.6677 75.8878 40.6947C75.5158 41.2227 75.1978 41.7747 74.7748 42.2637C74.3723 42.743 73.9071 43.1658 73.3918 43.5207C72.9117 43.8928 72.3301 44.1104 71.7238 44.1447C71.4609 44.1393 71.208 44.0431 71.0078 43.8725C70.8077 43.7019 70.6728 43.4674 70.6258 43.2087C70.4839 42.4718 70.5075 41.7125 70.6948 40.9857Z" fill="#263238"/>
<path d="M77.2622 44.799C82.0862 48.399 87.6902 50.34 90.0062 49.434C91.8062 48.726 97.6352 43.389 98.5892 39.075C98.7992 38.124 91.4882 37.275 91.2002 37.914C90.3572 39.75 87.0602 42.939 86.7242 42.891C86.2862 42.831 81.2972 41.763 77.3582 40.836C72.6002 39.717 74.6252 42.837 77.2622 44.799Z" fill="#EB9481"/>
<path d="M99.8999 37.5328C99.5189 39.0778 97.4999 41.9368 96.7469 42.4378C95.9939 42.9388 91.0259 39.6688 90.9539 38.7448C90.8819 37.8208 92.5739 32.7118 93.8639 31.7248C95.1539 30.7378 100.308 35.9308 99.8999 37.5328Z" fill="#EB9481"/>
<path d="M91.1009 37.8239C90.9219 36.55 90.5581 35.3089 90.0209 34.1399C89.3309 32.7689 88.1519 30.8099 88.8749 30.4109C90.3599 29.5919 93.2999 34.4759 93.2999 34.4759C93.2999 34.4759 94.2509 36.8399 92.8499 37.7759C92.5912 37.9445 92.2908 38.0382 91.9822 38.0466C91.6735 38.0551 91.3685 37.978 91.1009 37.8239Z" fill="#EB9481"/>
<path d="M92.1959 33.6449C92.7959 34.2239 93.2519 33.6929 93.2519 33.6929C93.2519 33.6929 92.3519 35.0609 92.9339 35.7929C93.5159 36.5249 94.4339 35.5469 94.5059 35.4929C94.4579 35.5649 93.6659 36.8429 94.3229 37.5179C94.9799 38.1929 95.7899 37.1039 95.8409 37.0319C95.8169 37.1159 95.5409 38.2139 96.1409 38.6099C97.1999 39.2969 97.9979 36.5099 98.9099 36.0509C98.9099 36.0509 99.8639 37.5089 99.8999 37.5509C99.9359 37.5929 100.713 34.9139 100.026 33.7169C99.9283 33.5413 99.7738 33.4042 99.5877 33.3284C99.4017 33.2525 99.1954 33.2425 99.0029 33.2999C99.0029 33.2999 99.3599 32.4779 98.8589 31.9289C98.5979 31.6499 97.9199 31.8149 97.9199 31.8149C97.9907 31.6244 98.0077 31.4181 97.9691 31.2186C97.9304 31.0191 97.8377 30.8341 97.7009 30.6839C97.3229 30.3179 96.7019 30.5399 96.7019 30.5399C96.7019 30.5399 99.1979 27.2399 98.4509 26.6399C97.1609 25.5869 92.7899 32.6399 92.0579 32.6999C91.7099 32.7149 91.9289 33.3899 92.1959 33.6449Z" fill="#EB9481"/>
<path d="M97.9439 31.7726C97.9439 31.7726 97.9439 31.7396 97.9259 31.7486C96.3557 32.5352 95.119 33.8581 94.4399 35.4776C94.4189 35.5346 94.4549 35.6096 94.4849 35.5466C94.9979 34.4666 96.7469 32.6156 97.9439 31.7726Z" fill="#263238"/>
<path d="M95.835 37.1521C96.516 35.5741 97.635 34.3741 98.955 33.3061C98.973 33.3061 98.955 33.2701 98.934 33.2761C98.142 33.6241 97.371 34.3921 96.834 35.0401C96.3095 35.6367 95.9515 36.361 95.796 37.1401C95.775 37.1581 95.82 37.2001 95.835 37.1521Z" fill="#263238"/>
<path d="M93.225 33.6958C93.195 33.7498 93.381 33.7168 93.354 33.7708C93.069 34.3708 92.613 35.4568 93.054 35.7988C93.402 36.0688 94.008 35.7988 94.2 35.5948L94.68 35.0968L94.401 35.7328C94.2732 36.0178 94.1931 36.3218 94.164 36.6328C94.1427 36.7737 94.1512 36.9176 94.189 37.055C94.2267 37.1924 94.2928 37.3205 94.383 37.4308C94.4685 37.5326 94.5865 37.6019 94.717 37.6271C94.8476 37.6522 94.9828 37.6316 95.1 37.5688C95.359 37.4264 95.577 37.2198 95.733 36.9688L96.189 36.2878L95.982 37.0768C95.9229 37.2969 95.8936 37.5239 95.895 37.7518C95.8889 37.963 95.9441 38.1714 96.054 38.3518C96.1079 38.4319 96.183 38.4954 96.271 38.5351C96.359 38.5749 96.4563 38.5893 96.552 38.5768C96.7633 38.518 96.9529 38.3992 97.098 38.2348C97.419 37.8854 97.7119 37.5113 97.974 37.1158C98.115 36.9208 98.256 36.7258 98.403 36.5368C98.5423 36.3382 98.7223 36.1715 98.931 36.0478C98.7405 36.1917 98.5796 36.371 98.457 36.5758C98.325 36.7738 98.202 36.9778 98.076 37.1758C97.8355 37.6006 97.5563 38.0023 97.242 38.3758C97.0744 38.579 96.8514 38.729 96.6 38.8078C96.4594 38.8365 96.3134 38.8234 96.1801 38.7701C96.0468 38.7167 95.9321 38.6256 95.85 38.5078C95.7025 38.2836 95.6262 38.0201 95.631 37.7518C95.6285 37.4991 95.6577 37.2472 95.718 37.0018L95.967 37.1098C95.7863 37.4105 95.5311 37.6595 95.226 37.8328C95.0528 37.9237 94.8534 37.9512 94.662 37.9108C94.475 37.8625 94.3074 37.7578 94.182 37.6108C94.0658 37.472 93.9805 37.3101 93.9319 37.1357C93.8833 36.9614 93.8724 36.7787 93.9 36.5998C93.9385 36.2629 94.0317 35.9346 94.176 35.6278L94.377 35.7658C94.125 36.0088 93.477 36.3928 92.892 36.0358C92.184 35.4568 93.048 33.9598 93.225 33.6958Z" fill="#263238"/>
<path d="M90.156 38.814L97.371 43.281C97.371 43.281 92.1 50.055 88.647 50.133C85.194 50.211 77.247 46.461 74.721 43.677C72.537 41.277 74.985 40.005 77.247 40.677C79.509 41.349 86.592 42.741 86.79 42.639C86.988 42.537 90.156 38.814 90.156 38.814Z" fill="#859ED3"/>
<path d="M96.0447 44.6159C95.799 44.4194 95.5415 44.238 95.2737 44.0729L94.4397 43.4999C93.9057 43.1369 93.3507 42.8039 92.7987 42.4679C91.6767 41.7839 90.5577 41.0789 89.3847 40.4849C89.3637 40.4849 89.3367 40.5059 89.3577 40.5209C90.3987 41.2949 91.5087 41.9759 92.6067 42.6629C93.1527 43.0079 93.6987 43.3559 94.2567 43.6769L95.1027 44.1479C95.3976 44.3327 95.7042 44.4981 96.0207 44.6429C96.0387 44.6549 96.0627 44.6309 96.0447 44.6159Z" fill="#263238"/>
<path d="M79.6019 47.0696C78.7736 46.5923 77.8532 46.2967 76.9019 46.2026C76.8973 46.2043 76.8933 46.2074 76.8905 46.2114C76.8877 46.2155 76.8862 46.2202 76.8862 46.2251C76.8862 46.23 76.8877 46.2348 76.8905 46.2388C76.8933 46.2429 76.8973 46.2459 76.9019 46.2476C77.2559 46.3496 77.5949 46.4936 77.9489 46.6076L78.1619 46.6736H77.9759L77.3759 46.6436C77.3549 46.6436 77.3519 46.6736 77.3759 46.6766C77.5712 46.7346 77.7725 46.7698 77.9759 46.7816C78.1281 46.7876 78.2806 46.7816 78.4319 46.7636H78.4709C78.6269 46.8056 79.4429 47.0996 79.6019 47.1116C79.6079 47.1176 79.6139 47.0996 79.6019 47.0696Z" fill="#263238"/>
<path d="M71.79 42.972C72.798 43.14 74.61 41.37 75.204 40.098C75.243 40.011 75.057 39.129 74.88 38.049C74.772 37.395 74.673 36.66 74.628 35.985C74.628 35.847 74.163 36.132 74.163 36.132L73.305 36.402L70.458 37.302C70.7556 38.1312 70.951 38.9935 71.04 39.87C71.0476 39.9628 71.0476 40.0561 71.04 40.149C71.04 40.149 71.04 40.176 71.04 40.194C70.974 40.716 70.815 42.807 71.79 42.972Z" fill="#EB9481"/>
<path d="M71.0279 40.1397C71.0279 40.1397 71.0279 40.1667 71.0279 40.1847C71.1737 40.1965 71.3202 40.1965 71.4659 40.1847C74.3129 39.9327 74.4299 36.2847 74.4299 36.2847L73.3079 36.4077L70.4609 37.3077C70.7585 38.1369 70.954 38.9992 71.0429 39.8757C71.0448 39.9639 71.0398 40.0522 71.0279 40.1397Z" fill="#263238"/>
<path d="M69.9782 29.5381C69.9782 29.5381 68.5982 30.0721 68.3131 31.4521C68.0281 32.8321 68.3131 34.2961 68.4301 34.3681C68.5472 34.4401 69.9782 29.5381 69.9782 29.5381Z" fill="#263238"/>
<path d="M75.5038 31.6048C75.9028 33.1258 74.9398 37.4398 73.8328 38.3668C72.2278 39.7108 69.6838 39.7468 68.5618 37.8358C67.4758 35.9818 68.8318 30.3838 70.0618 29.5498C71.8708 28.3228 74.9128 29.3548 75.5038 31.6048Z" fill="#EB9481"/>
<path d="M71.592 34.2598C71.592 34.2598 71.613 34.2778 71.61 34.2898C71.541 34.5898 71.511 34.9228 71.754 35.0758C71.436 34.9798 71.481 34.5238 71.592 34.2598Z" fill="#263238"/>
<path d="M71.9159 34.0081C72.3929 34.0681 72.2369 35.0191 71.7959 34.9621C71.3549 34.9051 71.5169 33.9601 71.9159 34.0081Z" fill="#263238"/>
<path d="M69.8997 33.936C69.8997 33.936 69.8757 33.936 69.8727 33.957C69.8337 34.257 69.7407 34.584 69.4587 34.638V34.656C69.7767 34.665 69.8997 34.221 69.8997 33.936Z" fill="#263238"/>
<path d="M69.6781 33.5999C69.2101 33.4889 69.0181 34.4309 69.4501 34.5359C69.8821 34.6409 70.0681 33.6809 69.6781 33.5999Z" fill="#263238"/>
<path d="M72.36 33.6359C72.2418 33.5788 72.1267 33.5157 72.015 33.4469C71.883 33.3719 71.769 33.3269 71.7 33.1859C71.6832 33.1441 71.6813 33.0978 71.6943 33.0547C71.7074 33.0116 71.7348 32.9743 71.772 32.9489C71.8521 32.9086 71.9415 32.8901 72.031 32.8954C72.1205 32.9007 72.2071 32.9295 72.282 32.9789C72.4483 33.0582 72.5797 33.1959 72.651 33.3659C72.6652 33.4057 72.6674 33.4488 72.6573 33.4898C72.6473 33.5308 72.6254 33.568 72.5944 33.5967C72.5635 33.6255 72.5247 33.6445 72.4831 33.6515C72.4414 33.6584 72.3986 33.653 72.36 33.6359Z" fill="#263238"/>
<path d="M69.3868 33.048C69.5184 33.0435 69.6497 33.0315 69.7799 33.012C69.9204 33.0187 70.0593 32.9798 70.1759 32.901C70.2069 32.8681 70.2264 32.826 70.2313 32.781C70.2362 32.736 70.2262 32.6907 70.2029 32.652C70.1458 32.5826 70.0711 32.5298 69.9867 32.4992C69.9022 32.4686 69.8111 32.4613 69.7229 32.478C69.5388 32.4832 69.3633 32.557 69.2308 32.685C69.2024 32.7156 69.1834 32.7539 69.1763 32.7951C69.1691 32.8364 69.1741 32.8788 69.1906 32.9173C69.2072 32.9557 69.2345 32.9885 69.2693 33.0117C69.3042 33.0349 69.345 33.0475 69.3868 33.048Z" fill="#263238"/>
<path d="M71.3999 36.933C71.3159 36.99 71.2319 37.074 71.1239 37.065C71.0163 37.0441 70.9142 37.0012 70.8239 36.939C70.8239 36.939 70.8029 36.939 70.8089 36.939C70.841 37.0038 70.89 37.0586 70.9507 37.0977C71.0115 37.1368 71.0817 37.1587 71.1539 37.161C71.217 37.1575 71.2774 37.1341 71.3264 37.0942C71.3754 37.0544 71.4106 37 71.4269 36.939C71.4449 36.933 71.4239 36.924 71.3999 36.933Z" fill="#263238"/>
<path d="M71.247 35.9999C71.1532 36.1038 71.039 36.1872 70.9115 36.245C70.784 36.3028 70.646 36.3338 70.506 36.3359C70.3835 36.3388 70.2612 36.3236 70.143 36.2909C70.1202 36.2885 70.0979 36.2825 70.077 36.2729L70.014 36.2519C69.9985 36.2471 69.9851 36.2369 69.9763 36.2232C69.9675 36.2095 69.9639 36.1931 69.966 36.1769C69.9649 36.167 69.9649 36.1569 69.966 36.1469V36.1199C69.996 35.8919 70.074 35.5529 70.074 35.5529C69.987 35.5799 69.534 35.6999 69.558 35.5829C69.753 34.5678 70.0495 33.5748 70.443 32.6189C70.4468 32.6139 70.4521 32.6102 70.4581 32.6083C70.4641 32.6064 70.4706 32.6065 70.4765 32.6085C70.4825 32.6105 70.4877 32.6143 70.4914 32.6194C70.4951 32.6245 70.497 32.6306 70.497 32.6369C70.323 33.5759 69.984 34.4789 69.795 35.4179C69.9574 35.374 70.1249 35.3518 70.293 35.3519C70.323 35.3519 70.128 36.0089 70.122 36.1109C70.3045 36.1599 70.495 36.1715 70.6821 36.1452C70.8692 36.1189 71.0491 36.0552 71.211 35.9579C71.247 35.9579 71.268 35.9819 71.247 35.9999Z" fill="#263238"/>
<path d="M70.2959 36.2007C70.3931 36.3828 70.5357 36.5367 70.7099 36.6477C70.8062 36.7061 70.9187 36.7323 71.0309 36.7227C71.2769 36.6987 71.3159 36.4827 71.3039 36.2937C71.2968 36.1915 71.2766 36.0907 71.2439 35.9937C70.9583 36.1627 70.6259 36.2352 70.2959 36.2007Z" fill="#263238"/>
<path d="M70.71 36.648C70.8063 36.7065 70.9187 36.7327 71.031 36.723C71.277 36.699 71.316 36.483 71.304 36.294C71.1796 36.2782 71.0536 36.3045 70.9459 36.3686C70.8383 36.4328 70.7552 36.5312 70.71 36.648Z" fill="#FF98B9"/>
<path d="M74.8108 35.1C73.9108 35.1 74.0248 31.179 74.0248 31.179C73.5024 31.4219 72.946 31.5837 72.3748 31.659C71.7943 31.6946 71.2116 31.6645 70.6378 31.569C70.5148 31.533 72.0568 30.933 72.0568 30.933C72.0568 30.933 68.1898 31.656 67.9858 30.933C67.9168 30.684 69.6808 28.032 72.3508 28.233C74.3248 28.371 75.4228 30.405 75.4228 30.405C75.4228 30.405 76.3708 31.467 76.3228 32.088C76.2688 32.895 75.7528 35.1 74.8108 35.1Z" fill="#263238"/>
<path d="M74.4357 35.0997C74.4357 35.0997 75.5007 33.7557 76.1187 34.1427C76.7367 34.5297 75.8757 36.5217 75.1107 36.7557C75.0146 36.7926 74.912 36.8096 74.8091 36.8058C74.7062 36.8019 74.6051 36.7772 74.5121 36.7332C74.419 36.6891 74.3358 36.6267 74.2675 36.5496C74.1992 36.4726 74.1472 36.3825 74.1147 36.2847L74.4357 35.0997Z" fill="#EB9481"/>
<path d="M75.8578 34.7158C75.8578 34.7158 75.8578 34.7158 75.8578 34.7368C75.6101 34.8421 75.3873 34.9982 75.2038 35.1951C75.0203 35.392 74.8803 35.6253 74.7928 35.8798C74.826 35.8289 74.8698 35.7859 74.9214 35.7537C74.9729 35.7216 75.0309 35.7011 75.0912 35.6936C75.1514 35.6862 75.2126 35.692 75.2704 35.7107C75.3282 35.7294 75.3813 35.7605 75.4258 35.8018C75.4258 35.8018 75.4258 35.8318 75.4108 35.8288C75.3203 35.7946 75.2215 35.7889 75.1276 35.8125C75.0337 35.8361 74.9494 35.8879 74.8858 35.9608C74.7825 36.0854 74.692 36.2201 74.6158 36.3628C74.5888 36.4108 74.5048 36.3778 74.5258 36.3268C74.5618 35.6458 75.1348 34.7398 75.8578 34.7158Z" fill="#263238"/>
<path d="M71.01 40.1129L72.042 42.6029L75.117 39.4019L76.017 40.4069C76.017 40.4069 73.017 45.4709 73.017 45.2459L71.961 43.1009L70.491 44.6189L70.569 40.8479L71.01 40.1129Z" fill="#EBEBEB"/>
<path d="M70.4068 42.7528C70.4428 42.1318 70.4578 41.5048 70.5208 40.8838C70.5208 40.8628 70.5568 40.8508 70.5628 40.8838C70.6948 41.4838 70.5628 43.8598 70.5628 44.4298C70.6228 44.3638 71.9278 43.0918 71.9398 43.1128C72.1678 43.4518 72.9418 45.0148 72.9958 45.1558C73.4668 44.3518 75.2788 41.4268 75.8398 40.6558C75.8409 40.6531 75.8427 40.6506 75.8449 40.6486C75.8471 40.6466 75.8497 40.6451 75.8525 40.6441C75.8553 40.6432 75.8583 40.6429 75.8613 40.6432C75.8642 40.6435 75.8671 40.6444 75.8697 40.6459C75.8722 40.6474 75.8745 40.6495 75.8762 40.6519C75.8779 40.6543 75.8791 40.6571 75.8797 40.66C75.8803 40.6629 75.8802 40.6659 75.8795 40.6688C75.8789 40.6717 75.8776 40.6744 75.8758 40.6768C75.4618 41.5258 73.0678 45.4768 73.0288 45.4528C72.6219 44.7163 72.2534 43.9593 71.9248 43.1848C71.7058 43.4608 70.3918 44.8948 70.3858 44.8018C70.3566 44.1189 70.3637 43.435 70.4068 42.7528Z" fill="#263238"/>
<path d="M80.2318 61.377H66.3538V62.187H80.2318V61.377Z" fill="#455A64"/>
<path d="M74.7898 61.377H66.3538V62.187H74.7898V61.377Z" fill="#263238"/>
<path d="M73.3319 62.1989L55.7669 62.2019L53.2529 50.2109H70.8209L73.3319 62.1989Z" fill="#455A64"/>
<path d="M64.362 56.205C64.3807 56.3405 64.3698 56.4784 64.33 56.6093C64.2902 56.7402 64.2224 56.8608 64.1315 56.9629C64.0405 57.065 63.9284 57.1462 63.803 57.2008C63.6775 57.2553 63.5418 57.282 63.405 57.279C63.1119 57.2718 62.8311 57.1593 62.6141 56.9621C62.3971 56.7649 62.2582 56.4961 62.223 56.205C62.2049 56.0696 62.2161 55.9319 62.2562 55.8012C62.2962 55.6706 62.3639 55.5502 62.4548 55.4482C62.5457 55.3462 62.6576 55.265 62.7827 55.2103C62.9079 55.1555 63.0434 55.1285 63.18 55.131C63.4734 55.1376 63.7545 55.2499 63.9716 55.4473C64.1888 55.6446 64.3274 55.9137 64.362 56.205Z" fill="#263238"/>
<path d="M59.292 62.9127C60.375 63.5127 61.692 64.9017 62.592 65.0577C62.8129 65.1054 63.0433 65.0803 63.2488 64.9862C63.4542 64.8921 63.6238 64.7341 63.732 64.5357C63.732 64.5357 64.137 65.4657 64.98 65.4717C65.415 65.4717 65.802 64.7877 65.802 64.7877C65.9047 64.9932 66.0621 65.1663 66.2569 65.288C66.4517 65.4098 66.6763 65.4754 66.906 65.4777C67.506 65.4477 67.806 64.7607 67.806 64.7607C67.806 64.7607 68.475 65.3037 69.075 65.0607C70.275 64.5987 70.557 59.4687 68.709 58.5777C67.848 58.1607 67.851 59.4177 67.851 59.4177C67.851 59.4177 67.413 57.6177 66.351 57.5307C65.289 57.4437 65.4 59.0997 65.4 59.0997C65.4 59.0997 64.959 57.3537 63.855 57.3777C62.706 57.4047 63.087 59.0187 63.087 59.0187C63.087 59.0187 62.376 57.8367 61.533 58.0497C60.147 58.4007 61.722 61.0797 61.395 62.1927H59.559L59.292 62.9127Z" fill="#EB9481"/>
<path d="M60.852 63.9151C59.778 63.4501 59.262 64.2151 58.152 64.0711C56.904 63.9091 57.309 62.4451 59.502 62.1841H61.401L60.852 63.9151Z" fill="#EB9481"/>
<path d="M65.8082 64.7997C65.8082 64.8207 65.8382 64.8237 65.8442 64.7997C66.4049 62.8878 66.2633 60.8384 65.4452 59.0217C65.4152 58.9587 65.3252 58.9317 65.3522 59.0217C65.8502 60.2817 66.0362 63.1677 65.8082 64.7997Z" fill="#263238"/>
<path d="M62.9757 58.9018C63.7587 60.6838 63.8907 62.5408 63.7527 64.4638C63.7527 64.4694 63.755 64.4747 63.7589 64.4787C63.7628 64.4826 63.7682 64.4848 63.7737 64.4848C63.7793 64.4848 63.7847 64.4826 63.7886 64.4787C63.7925 64.4747 63.7947 64.4694 63.7947 64.4638C64.1187 63.5398 64.0798 62.3038 63.9657 61.3438C63.8772 60.4513 63.5577 59.5973 63.0387 58.8658C63.0177 58.8448 62.9577 58.8628 62.9757 58.9018Z" fill="#263238"/>
<path d="M116.229 91.4998C116.32 89.9848 116.535 88.4798 116.871 86.9998C117.189 85.6618 117.642 84.2998 118.485 83.1928C119.253 82.1848 120.36 81.3928 121.644 81.2248C122.88 81.0718 124.044 81.6238 124.968 82.4038C126.117 83.3698 126.996 84.6478 127.818 85.8868C128.722 87.2749 129.544 88.7144 130.281 90.1978C130.305 90.2458 130.23 90.2878 130.206 90.2368C129.568 88.9805 128.832 87.7767 128.004 86.6368C127.251 85.5412 126.403 84.5142 125.469 83.5678C124.62 82.7368 123.54 81.9628 122.31 81.9238C121.08 81.8848 119.955 82.5718 119.217 83.5138C118.392 84.5698 117.975 85.8898 117.66 87.1738C117.336 88.5869 117.123 90.0233 117.024 91.4698C116.784 94.4398 116.724 97.4308 116.649 100.413C116.613 102.099 116.588 103.785 116.574 105.471C116.574 106.327 116.567 107.182 116.553 108.036C116.585 108.861 116.552 109.688 116.454 110.508C116.427 110.676 116.154 110.658 116.127 110.508C116.027 109.731 115.989 108.948 116.013 108.165C116.013 107.355 115.992 106.545 115.986 105.735C115.971 104.16 115.962 102.582 115.968 101.007C115.977 97.8388 116.016 94.6648 116.229 91.4998Z" fill="#263238"/>
<path d="M120.477 89.271C120.636 88.431 120.918 87.333 121.398 86.682C122.259 85.512 123.198 86.022 122.328 87.318C121.694 88.2799 121.284 89.3716 121.128 90.513C121.128 90.513 122.574 92.58 124.32 93.597C124.245 92.802 124.02 91.581 124.176 90.402C124.509 87.849 126.054 88.002 125.676 90.021C125.376 91.647 125.244 93.372 125.325 94.122C125.909 94.4952 126.535 94.7974 127.191 95.022C127.092 94.722 126.987 94.371 126.867 93.942C126.249 91.653 127.767 90.942 127.824 92.226C127.923 93.3242 128.124 94.4108 128.424 95.472C129.261 95.754 129.954 95.946 130.38 96.096C131.481 96.5023 132.464 97.1742 133.242 98.052C134.036 97.333 134.696 96.4788 135.192 95.529C134.658 95.07 133.815 94.386 132.645 93.561C130.449 92.01 131.214 90.054 132.945 91.272C134.202 92.148 135.174 93.774 135.615 94.611C136.209 93.157 136.546 91.6111 136.611 90.042C134.886 88.422 130.611 86.169 131.91 86.169C133.065 86.169 135.654 87.864 136.602 88.518C136.577 88.0727 136.528 87.629 136.455 87.189C134.832 86.127 129.555 84.471 130.398 83.994C131.322 83.472 135.003 85.176 136.113 85.716C135.904 84.9927 135.575 84.31 135.138 83.697C132.897 80.697 128.853 79.659 127.089 80.232C125.838 80.637 126.204 83.805 125.937 83.697C120.915 81.69 118.632 83.118 120.477 89.271ZM132.777 88.923C133.131 88.494 134.778 89.757 134.301 90.45C133.824 91.143 132.315 89.475 132.774 88.923H132.777ZM124.176 86.223C124.608 86.499 123.969 88.101 123.3 87.615C122.73 87.198 123.735 85.944 124.173 86.22L124.176 86.223Z" fill="#859ED3"/>
<path d="M124.827 86.6999C125.055 86.2529 125.292 85.7999 125.55 85.3769C125.787 84.9516 126.065 84.5498 126.378 84.1769L126.165 83.9129C126.135 83.8799 126.186 83.8289 126.216 83.8649C126.3 83.9609 126.381 84.0569 126.462 84.1649C126.477 84.1734 126.489 84.1873 126.495 84.2039C126.795 84.5759 127.095 84.9599 127.377 85.3499C127.871 85.4625 128.358 85.6037 128.835 85.7729C129.327 85.9379 129.813 86.1089 130.293 86.3099C130.341 86.3309 130.317 86.4119 130.266 86.3909C129.792 86.1809 129.312 85.9769 128.823 85.8119C128.334 85.6469 127.884 85.5359 127.413 85.4009C127.566 85.6169 127.713 85.8359 127.863 86.0579C128.748 86.3374 129.609 86.6886 130.437 87.1079C131.307 87.5219 132.147 88.0079 132.981 88.4849C133.026 88.5119 132.981 88.5839 132.936 88.5569C132.116 88.0777 131.272 87.6411 130.407 87.2489C129.6 86.8709 128.766 86.5589 127.953 86.1989C129.999 89.3969 131.229 93.0839 132.87 96.5009C132.894 96.5489 132.816 96.5909 132.795 96.5399C132.294 95.3399 131.718 94.1759 131.172 92.9969C130.68 91.9409 130.203 90.8759 129.711 89.8199C129.567 89.5119 129.42 89.2029 129.27 88.8929C129.36 90.5999 129.324 92.3369 129.603 94.0259C129.603 94.0314 129.602 94.0369 129.6 94.042C129.598 94.0471 129.594 94.0517 129.591 94.0556C129.587 94.0595 129.582 94.0626 129.577 94.0647C129.572 94.0668 129.566 94.0679 129.561 94.0679C129.555 94.0679 129.55 94.0668 129.545 94.0647C129.54 94.0626 129.535 94.0595 129.531 94.0556C129.527 94.0517 129.524 94.0471 129.522 94.042C129.52 94.0369 129.519 94.0314 129.519 94.0259C129.402 92.2019 129.081 90.4049 129.093 88.5689C129.093 88.5689 129.093 88.5539 129.093 88.5449C128.745 87.8489 128.376 87.1589 127.977 86.4899C127.296 88.0889 126.585 89.7119 126.267 91.4249C126.267 91.4789 126.171 91.4549 126.186 91.4009C126.648 89.6819 127.086 87.9599 127.905 86.3699C127.468 85.647 126.987 84.9526 126.462 84.2909C126.234 84.7169 125.94 85.1159 125.682 85.5239C125.424 85.9319 125.181 86.3189 124.947 86.7239C124.444 87.5859 124.016 88.4892 123.666 89.4239C123.648 89.4749 123.564 89.4479 123.585 89.3969C123.984 88.4999 124.38 87.5999 124.827 86.6999Z" fill="#263238"/>
<path d="M108.681 90.6002C109.998 89.2832 111.525 87.5522 113.556 87.5552C115.515 87.5552 116.958 89.1392 117.789 90.7682C118.656 92.4692 118.968 94.3982 119.211 96.2732C119.499 98.5199 119.672 100.78 119.73 103.044C119.766 104.301 119.763 105.561 119.73 106.818C119.729 108.093 119.629 109.366 119.43 110.625C119.394 110.829 119.07 110.835 119.058 110.625C118.998 109.566 119.04 108.504 119.058 107.445C119.076 106.386 119.058 105.345 119.01 104.313C118.932 102.213 118.779 100.098 118.53 98.0132C118.314 96.1832 118.143 94.2992 117.594 92.5322C117.099 90.9362 116.172 89.1122 114.555 88.4102C112.35 87.4532 110.193 89.1992 108.747 90.6752C108.711 90.6902 108.645 90.6362 108.681 90.6002Z" fill="#263238"/>
<path d="M101.976 93.5431C101.976 93.8131 102.003 94.0801 102.021 94.3411C102.653 93.8667 103.393 93.5574 104.175 93.4411C106.041 93.2431 105.921 94.6621 104.676 94.7221C103.798 94.7331 102.929 94.9071 102.114 95.2351C102.414 97.6981 103.098 99.6781 103.197 99.7051C104.852 99.6107 106.499 99.4022 108.126 99.0811C107.664 98.0941 106.608 96.7801 107.145 96.6811C107.682 96.5821 108.273 97.7461 108.57 99.0001C109.794 98.7672 110.998 98.4371 112.17 98.0131C111.351 97.3021 110.07 96.4201 110.568 96.0421C111.066 95.6641 112.068 96.9121 112.668 97.8151C113.218 97.5925 113.738 97.3023 114.216 96.9511C113.112 95.3281 110.418 94.9981 110.769 93.8221C111.12 92.6461 113.64 94.2781 114.774 96.4501C116.103 95.0731 116.493 93.1201 116.352 91.4551C115.194 91.3201 112.965 91.5631 113.127 90.7321C113.289 89.9011 114.897 90.0601 116.217 90.5461C116.095 89.8863 115.831 89.2608 115.443 88.7131C114.222 87.1471 110.499 89.1391 110.499 89.1391C110.499 89.1391 110.898 85.3951 109.476 84.7471C108.657 84.3751 107.214 84.3781 105.765 85.2331C106.578 85.2991 107.565 85.5571 107.955 86.1331C108.459 86.8531 107.655 87.2431 107.157 86.9131C106.8 86.6761 106.134 85.9351 104.931 85.8391C104.416 86.2745 103.963 86.7793 103.587 87.3391C103.445 87.5379 103.314 87.7442 103.194 87.9571C103.882 87.6486 104.629 87.4956 105.382 87.5091C106.136 87.5226 106.877 87.7022 107.553 88.0351C109.167 88.8391 108.267 90.5161 106.878 89.8621C105.489 89.2081 104.178 88.5721 102.693 88.9411C102.174 90.2691 101.933 91.6894 101.985 93.1141C102.708 92.5886 103.522 92.2001 104.385 91.9681C105.99 91.5451 106.485 92.5051 104.712 92.6821C103.751 92.7798 102.82 93.0728 101.976 93.5431ZM103.929 90.9661C103.818 90.4471 104.958 90.2971 105.147 90.7201C105.3 91.0801 104.037 91.5001 103.929 90.9661ZM113.67 93.8461C113.775 93.5641 114.537 93.8851 114.468 94.2391C114.372 94.7131 113.565 94.1311 113.67 93.8461ZM108.3 95.6701C108.855 95.4511 109.722 96.8281 109.116 97.1461C108.51 97.4641 107.838 95.8531 108.3 95.6701Z" fill="#859ED3"/>
<path d="M103.416 99.429C104.253 98.031 105.078 96.624 105.957 95.25C106.368 94.611 106.794 93.984 107.241 93.369C107.172 93.369 107.106 93.336 107.04 93.324L106.707 93.258C106.452 93.213 106.191 93.177 105.933 93.15C105.675 93.123 105.444 93.114 105.198 93.111C104.935 93.0969 104.672 93.11 104.412 93.15C104.382 93.15 104.376 93.108 104.412 93.108C104.673 93.108 104.94 93.087 105.204 93.081C105.468 93.075 105.711 93.081 105.966 93.099C106.221 93.117 106.44 93.138 106.677 93.174C106.809 93.195 106.938 93.216 107.067 93.243C107.145 93.258 107.226 93.27 107.301 93.291C107.754 92.67 108.225 92.058 108.711 91.461C107.262 90.755 105.718 90.2628 104.127 90C104.121 90 104.116 89.9977 104.112 89.9938C104.108 89.9899 104.106 89.9845 104.106 89.979C104.106 89.9734 104.108 89.968 104.112 89.9641C104.116 89.9602 104.121 89.958 104.127 89.958C105.74 90.1813 107.309 90.6571 108.774 91.368C109.041 91.038 109.311 90.711 109.581 90.387C109.851 90.063 110.208 89.667 110.481 89.28C110.499 89.256 110.535 89.28 110.514 89.304C110.138 89.7196 109.784 90.1542 109.452 90.606C110.049 91.0231 110.618 91.4801 111.153 91.974C111.711 92.466 112.254 92.975 112.782 93.501C112.8 93.519 112.782 93.552 112.752 93.531C112.23 93.012 111.69 92.52 111.123 92.049C110.556 91.578 109.965 91.149 109.395 90.684L109.005 91.194L108.807 91.452C108.807 91.452 108.807 91.452 108.792 91.47L108.144 92.322C108.397 92.6886 108.613 93.0795 108.789 93.489C108.978 93.885 109.14 94.293 109.29 94.689C109.59 95.5438 109.823 96.4204 109.989 97.311C109.989 97.338 109.953 97.35 109.947 97.311C109.77 96.4344 109.516 95.5751 109.188 94.743C109.023 94.314 108.84 93.897 108.648 93.48C108.456 93.063 108.264 92.739 108.102 92.358C107.913 92.607 107.727 92.856 107.544 93.108C107.49 93.183 107.439 93.258 107.385 93.33C107.385 93.348 107.385 93.369 107.367 93.369C106.793 94.169 106.242 94.987 105.714 95.823C105.746 95.8805 105.77 95.9421 105.786 96.006C105.822 96.108 105.852 96.207 105.882 96.306C105.942 96.5103 105.991 96.7176 106.029 96.927C106.065 97.125 106.092 97.323 106.113 97.527C106.115 97.7529 106.132 97.9784 106.164 98.202C106.164 98.238 106.116 98.238 106.122 98.202C106.138 97.9897 106.121 97.7764 106.074 97.569C106.044 97.353 106.005 97.137 105.954 96.927C105.903 96.717 105.858 96.543 105.801 96.354C105.771 96.258 105.741 96.165 105.708 96.072C105.675 95.979 105.669 95.97 105.651 95.916C105.403 96.306 105.157 96.698 104.913 97.092C104.43 97.875 103.953 98.661 103.473 99.444C103.455 99.504 103.392 99.468 103.416 99.429Z" fill="#263238"/>
<path d="M116.319 110.169C116.34 109.377 116.466 108.579 116.55 107.79C116.634 107.001 116.727 106.206 116.811 105.414C116.973 103.89 117.063 102.327 117.411 100.833C117.676 99.5294 118.326 98.3351 119.277 97.4042C119.768 96.9129 120.413 96.6048 121.104 96.5312C121.8 96.5102 122.483 96.7213 123.045 97.1312C123.688 97.6024 124.242 98.1846 124.68 98.8502C125.153 99.508 125.578 100.199 125.952 100.917C125.967 100.947 125.925 100.962 125.91 100.938C125.204 99.7374 124.267 98.6883 123.153 97.8512C122.66 97.4432 122.056 97.1905 121.419 97.1252C120.79 97.117 120.184 97.3587 119.733 97.7972C118.809 98.6012 118.275 99.7832 117.957 100.944C117.579 102.321 117.456 103.767 117.267 105.177C117.156 106.017 117.048 106.857 116.937 107.694C116.826 108.531 116.76 109.386 116.58 110.208C116.567 110.235 116.546 110.257 116.52 110.271C116.494 110.284 116.464 110.29 116.435 110.285C116.406 110.281 116.379 110.267 116.358 110.246C116.337 110.225 116.323 110.198 116.319 110.169Z" fill="#263238"/>
<path d="M120.216 104.013C120.461 104.346 120.751 104.643 121.08 104.895C120.948 104.121 120.78 102.747 121.182 102.015C121.782 100.878 122.505 101.445 122.145 102.432C121.783 103.323 121.585 104.272 121.56 105.234C122.384 105.753 123.269 106.17 124.194 106.476C124.095 106.031 124.066 105.574 124.107 105.12C124.227 103.92 125.157 103.92 124.917 105.192C124.826 105.682 124.783 106.179 124.788 106.677C126.13 107.09 127.502 107.399 128.892 107.601C129.602 106.682 130.174 105.664 130.59 104.58C129.603 104.331 127.59 104.28 127.644 103.569C127.701 102.618 129.639 103.35 130.773 104.04C131.033 103.213 131.149 102.347 131.115 101.481C130.225 101.233 129.31 101.081 128.388 101.028C126.354 100.854 126.453 99.6989 127.929 99.7259C129.018 99.7439 130.395 100.413 131.046 100.758C130.623 97.9889 128.508 96.2129 126.816 96.1469C123.969 96.0299 124.992 99.5759 124.992 99.5759C124.992 99.5759 123.063 98.2169 121.242 98.2529C119.421 98.2889 118.269 101.304 120.216 104.013ZM127.824 98.8919C127.758 98.4929 129.024 98.3969 129.096 98.9069C129.171 99.4829 127.887 99.2999 127.824 98.8919ZM129.867 103.05C129.84 102.789 130.389 102.75 130.515 103.071C130.596 103.284 129.9 103.305 129.867 103.05ZM123.03 103.29C123.459 103.353 123.702 104.886 122.964 104.856C122.4 104.832 122.667 103.239 123.03 103.29Z" fill="#859ED3"/>
<path d="M123.624 105C123.693 104.811 123.756 104.616 123.819 104.421C123.763 104.621 123.715 104.821 123.675 105.021C123.674 105.024 123.671 105.027 123.669 105.03C123.666 105.032 123.663 105.034 123.66 105.036C123.657 105.037 123.653 105.038 123.649 105.038C123.646 105.038 123.642 105.037 123.639 105.036C123.636 105.035 123.633 105.032 123.63 105.03C123.627 105.027 123.625 105.024 123.624 105.021C123.623 105.018 123.622 105.014 123.622 105.01C123.622 105.007 123.623 105.003 123.624 105Z" fill="#263238"/>
<path d="M124.374 102.528C124.509 102.135 124.659 101.748 124.812 101.361C124.893 101.154 124.977 100.95 125.067 100.746C125.133 100.566 125.219 100.394 125.322 100.233C125.234 100.072 125.156 99.9059 125.091 99.7347C125.091 99.7197 125.091 99.7077 125.118 99.7197C125.326 99.9912 125.512 100.279 125.673 100.581L125.904 100.989C126.065 101.004 126.226 101.028 126.384 101.061C126.555 101.094 126.723 101.127 126.894 101.166L127.401 101.283C127.569 101.325 127.734 101.379 127.905 101.406C127.909 101.407 127.912 101.408 127.915 101.411C127.918 101.413 127.92 101.416 127.922 101.419C127.924 101.422 127.925 101.426 127.925 101.429C127.926 101.433 127.926 101.437 127.925 101.44C127.924 101.444 127.922 101.447 127.92 101.45C127.917 101.453 127.915 101.455 127.911 101.457C127.908 101.459 127.905 101.46 127.901 101.461C127.897 101.461 127.894 101.461 127.89 101.46C127.717 101.398 127.54 101.351 127.359 101.319C127.194 101.286 127.032 101.256 126.867 101.232C126.702 101.208 126.534 101.187 126.369 101.172L125.991 101.142C126.06 101.259 126.129 101.379 126.195 101.499C126.206 101.517 126.216 101.536 126.225 101.556C126.364 101.554 126.502 101.57 126.636 101.604C126.783 101.631 126.936 101.658 127.074 101.691C127.374 101.757 127.674 101.826 127.974 101.91C128.574 102.081 129.198 102.279 129.807 102.477C129.84 102.477 129.807 102.54 129.786 102.528C129.182 102.324 128.567 102.153 127.944 102.018C127.644 101.952 127.362 101.883 127.068 101.823L126.63 101.73C126.516 101.713 126.402 101.688 126.291 101.655C126.603 102.233 126.896 102.822 127.17 103.422C127.77 104.73 128.256 106.074 128.763 107.415C128.763 107.448 128.724 107.472 128.712 107.436C128.222 106.104 127.656 104.802 127.017 103.536C126.903 103.305 126.786 103.074 126.669 102.843C126.669 102.891 126.648 102.936 126.639 102.984C126.612 103.143 126.582 103.302 126.555 103.461C126.504 103.779 126.45 104.094 126.402 104.415C126.267 105.066 126.19 105.727 126.171 106.392C126.171 106.399 126.168 106.406 126.163 106.411C126.158 106.416 126.151 106.419 126.144 106.419C126.137 106.419 126.13 106.416 126.125 106.411C126.12 106.406 126.117 106.399 126.117 106.392C126.168 106.077 126.168 105.747 126.189 105.429C126.21 105.111 126.234 104.763 126.273 104.43C126.312 104.097 126.351 103.791 126.402 103.473C126.429 103.314 126.456 103.155 126.486 102.999C126.494 102.879 126.525 102.762 126.576 102.654C126.408 102.318 126.243 101.982 126.075 101.649C125.907 101.316 125.757 101.025 125.595 100.713C125.526 100.584 125.451 100.449 125.376 100.317C125.326 100.481 125.263 100.642 125.187 100.797C125.115 100.974 125.043 101.154 124.968 101.334C124.806 101.73 124.668 102.132 124.5 102.534C124.287 103.104 124.047 103.689 123.87 104.28C124.032 103.695 124.179 103.104 124.374 102.528Z" fill="#263238"/>
<path d="M123.819 104.415C123.819 104.37 123.846 104.325 123.858 104.277L123.819 104.415Z" fill="#263238"/>
<path d="M111.555 108.627L111.756 112.869L112.272 123.792H123.543L124.059 112.869L124.26 108.627H111.555Z" fill="#37474F"/>
<path d="M111.555 108.627L111.756 112.869H124.059L124.26 108.627H111.555Z" fill="#263238"/>
<path d="M110.754 110.343H125.061V106.914H110.754V110.343Z" fill="#37474F"/>
<path d="M122.634 123.792H120.654V125.586H122.634V123.792Z" fill="#37474F"/>
<path d="M122.634 123.792H120.654V124.689H122.634V123.792Z" fill="#263238"/>
<path d="M115.161 123.792H113.184V125.586H115.161V123.792Z" fill="#37474F"/>
<path d="M115.161 123.792H113.184V124.689H115.161V123.792Z" fill="#263238"/>
</svg>
